<svg xmlns="http://www.w3.org/2000/svg" width="22.035" height="20.422" viewBox="0 0 22.035 20.422">
  <g id="download" transform="translate(0)">
    <g id="Group_8" data-name="Group 8" transform="translate(0 0)">
      <g id="Group_7" data-name="Group 7">
        <path id="Path_2891" data-name="Path 2891" d="M21.4,228.244a.629.629,0,0,0-.631.631v5.743a2.833,2.833,0,0,1-2.829,2.829H4.092a2.833,2.833,0,0,1-2.829-2.829v-5.836a.631.631,0,0,0-1.263,0v5.836a4.1,4.1,0,0,0,4.092,4.092H17.943a4.1,4.1,0,0,0,4.092-4.092v-5.743A.632.632,0,0,0,21.4,228.244Z" transform="translate(0 -218.288)" fill="#ff2451"/>
        <path id="Path_2892" data-name="Path 2892" d="M140.428,32.659a.635.635,0,0,0,.444.187.616.616,0,0,0,.444-.187l4.012-4.012a.632.632,0,1,0-.893-.893L141.5,30.69V17.881a.631.631,0,0,0-1.263,0V30.69L137.3,27.753a.632.632,0,1,0-.893.893Z" transform="translate(-129.855 -17.25)" fill="#ff2451"/>
      </g>
    </g>
  </g>
</svg>
