<svg id="Layer_1" data-name="Layer 1" xmlns="http://www.w3.org/2000/svg" viewBox="0 0 135.7 123.5">
  <defs>
    <style>
      .cls-1 {
        opacity: 0.22;
      }

      .cls-2 {
        opacity: 0.52;
      }

      .cls-3 {
        fill: #fff;
      }
    </style>
  </defs>
  <title>meshlogo-black</title>
  <g id="Group_4" data-name="Group 4" class="cls-1">
    <path id="Path_2886" data-name="Path 2886" class="cls-2" d="M82,24.2c-.4,3-.8,5.9-1.3,8.9s-.8,5-1.3,7.7c1.5.1,2.1-.3,2.4-1.9.8-6.8,1.9-13.5,2.9-20.2a35.3,35.3,0,0,0,.1-4.6c0-.5-.4-1.1-.3-1.5.7-2.3,1.4-4.6,2.2-7l1.4,1.1L88.5,5,91,6.4l.7-1.1a4.4,4.4,0,0,1,2.7,5.6,4.1,4.1,0,0,1-.5.9,12.5,12.5,0,0,0,.2,7.9c.5-2.2,1.1-4.5,1.6-6.8h.5l-.3,2.4c-.3,1.7-.5,3.4-.7,5.1v.2c-1.4,1.7-.5,3.8-.8,5.8s-.6,4.1-.8,6.1a28.7,28.7,0,0,0-.5,4.1c0,.3.8.8,1.2.8,4.2-.3,8.5-.8,12.7-1,7-.5,14-.9,21-1.1,2.5-.1,4.9.2,7.7.3a3.6,3.6,0,0,1-3.1,2.3A101.5,101.5,0,0,1,118,39.2c-3.5.1-6.9.7-10.4,1.1-.2,0-.3.2-.7.5h22.3v.3l-23.3,1.5v.5l19.6-.8c.3,1,.1,1.4-.8,1.5-3.8.2-7.7.5-11.5.9s-8.8.9-13.2,1.6c-2.7.3-5.3,1-7.9,1.5-1,.2-1.3.7-1.4,1.8a43.3,43.3,0,0,1-.8,5c-.4,2.3-.9,4.5-1.4,6.8a1.4,1.4,0,0,1-.7.8L88,60h-.3l-1.3,6a173,173,0,0,1,24.9-1.2l-1,1.3.2.2-2.2.5v.5l1.9.3-1.8.9a8.3,8.3,0,0,0-1.5,1.1l1.1.9a20.4,20.4,0,0,0-4.5,2.1c-2.9,2.2-6.5,1.9-9.7,2.9a37.1,37.1,0,0,0-4.6,1.9l-2.2.8-4.8,1.9a2.1,2.1,0,0,0-1,.6V81l.9-.2c-.1.5-.1.9-.2,1.5l1.2-.9a25,25,0,0,0-.2,2.5c-.9-.5-1.3-.9-1.4.6s-.9,4.7-1.2,7-.7,6.5-1,9.7-.4,3.5-.5,5.2-.5,5.9-.8,8.8h-.4v-2.2a26.4,26.4,0,0,0,.2-2.8,14.6,14.6,0,0,0-.4-5.9,2,2,0,0,1-.1-1.1c.3-3.4.7-6.8,1.1-10.2.1-1.2.1-2.4.3-3.6s1.1-5.1,1.6-7.7v-1h-.4A36.9,36.9,0,0,0,79,85.2c-.5,3.1-1,6.1-1.3,9.2s-.9,7.6-1.3,11.3-.6,8.2-.9,12.3a8.4,8.4,0,0,1-2.4,5.1l-.9.4v-1.8h-.3a5,5,0,0,1-.4,1.3,170,170,0,0,1,1.2-28.5l.6,1.2c.3-1.6.5-3.1.7-4.6s.8-5.9,1.1-8.9c.2-1.4-.9-.4-1.3-.5a2.6,2.6,0,0,0-2.5,1.1,7.4,7.4,0,0,0-2.1,0c-2.2.7-4.4,1.6-6.5,2.2l-8.5,2.4-2.8.8a1.6,1.6,0,0,0-.8,1c-.8,1.7-1.4,3.6-2.1,5.3s-2.5,5.8-3.9,8.6c-.4.9-1.5,1.5-2.5,2.4.7-5.4,1.4-10.4,2-15.5h-.5L41,99h-.4V90.3a22.7,22.7,0,0,0-5.2.9,40.7,40.7,0,0,1-6.8,2c-4.3,1.2-8.6,2-13,3A34.9,34.9,0,0,0,5.3,99.7a5.4,5.4,0,0,1-2.2.5v-.5l13.6-6.1v-.3l-3.1.8L4.7,98.2l-1.4.3v-.4l11.7-5.7-.2-.4L9.4,94.3,5.9,95.8a1.4,1.4,0,0,1-1.1-.3,1.7,1.7,0,0,1-.2-1.4,5.5,5.5,0,0,1,1.7-2A105.6,105.6,0,0,1,30.8,81.7c3.9-1.3,7.8-2.8,11.6-4.3.5-.2.8-1.1.9-1.7l1.2-14.3c0-.2-.1-.5-.1-.8l-3.8.8c-4.3,1.3-8.6,2.5-12.8,4s-7,3.1-10.6,4.5a55.3,55.3,0,0,1-7.9,2.4c-1.7.4-2.1-.3-2.3-2.1a25.2,25.2,0,0,0-.5-3.7,6.2,6.2,0,0,1,.1-1.3l1.7,1.2.2-.2-2.7-4,.2-.3,1.6.9V61.3a8.1,8.1,0,0,0,6.8-.7c6.1-2.2,12.2-4.7,18.3-6.9,3.1-1.2,6.3-1.9,9.4-2.8,1.3-.4,2.7-.7,3.9-1.2a2.1,2.1,0,0,0,1.2-1.4c.5-2.2.8-4.4,1.1-6.7s.6-3.9.8-5.9-.4-1.3-.2-1.9c.5-2.3,1.2-4.5,1.7-6.8s.6-4.4,1-6.7c.1-.4.7-.7.9-1.1a18.7,18.7,0,0,0,.7-2.2l.8,2.6h.3l.5-3.1.6,1.8.6-.8.6,1c.2-.8.3-1.5.4-2.1a14.3,14.3,0,0,1,1.1,7.9c-.4,1.7-1,3.3-1.3,4.9s.2,2,.1,2.9-.5,2.7-.7,4.3l.5.3a21.4,21.4,0,0,1-.6,3.5c-.3.9-.9,1.7-1.2,2.6s.1.8.1,1.2h.5l-2.1,1c2,1.9,4,1,6,.6l18.5-4.6a1.2,1.2,0,0,0,.9-.9c.9-4.1,1.6-8.2,2.4-12.3.2-1.2.5-2.4.8-3.7ZM73.6,68.3l3.6-.8c.2-.1.4-.6.5-.9.4-2,.9-4,1.1-6A80.5,80.5,0,0,1,80.5,51v-.9H78.9L71,52.4a12.2,12.2,0,0,0-2.6.6c-2.2.7-4.2,1.6-6.4,2.4l-4.9,1.7a2,2,0,0,0-1.5,2,29.1,29.1,0,0,1-.4,3.1c-.6,3.7-1.1,7.3-1.7,11.2l1.2-.3,17.4-4.4a1.5,1.5,0,0,0,1.4-1.5c.1-.6.3-1.2.4-1.7h.5ZM87.4,57.1l-.3-.4c-.2.3-.6.5-.6.8l-1.2,6a4.1,4.1,0,0,0,.1,1.1h.5Zm.6,1.2h.5L90,49.7h-.6c-.4,2.9-.9,5.8-1.4,8.7ZM55.7,20.6h-.4l-.6,5.7H55ZM88,53.2h-.7l-.2,3h.4c.2-1,.3-2,.5-2.9Z"/>
    <path id="Path_2887" data-name="Path 2887" class="cls-3" d="M59.4,37.4c-.9-.4-1.1-2.7,0-5.8Z"/>
    <path id="Path_2888" data-name="Path 2888" class="cls-3" d="M72.4,93.5l.6-3.7h.5l-.4,3.7Z"/>
    <path id="Path_2889" data-name="Path 2889" class="cls-3" d="M82,24.3c.3-1.9.5-3.8.8-5.6h.4L82,24.2Z"/>
    <path id="Path_2890" data-name="Path 2890" class="cls-3" d="M73,88.9l.3-2.8h.5a28.3,28.3,0,0,0-.2,2.9Z"/>
  </g>
  <g id="Group_4-2" data-name="Group 4">
    <path id="Path_2886-2" data-name="Path 2886" d="M79,19.2c-.4,3-.8,5.9-1.3,8.9s-.8,5-1.3,7.7c1.5.1,2.1-.3,2.4-1.9.8-6.8,1.9-13.5,2.9-20.2a35.3,35.3,0,0,0,.1-4.6c0-.5-.4-1.1-.3-1.5.7-2.3,1.4-4.6,2.2-7l1.4,1.1L85.5,0,88,1.4,88.7.3a4.4,4.4,0,0,1,2.7,5.6,4.1,4.1,0,0,1-.5.9,12.5,12.5,0,0,0,.2,7.9c.5-2.2,1.1-4.5,1.6-6.8h.5l-.3,2.4c-.3,1.7-.5,3.4-.7,5.1v.2c-1.4,1.7-.5,3.8-.8,5.8s-.6,4.1-.8,6.1a28.7,28.7,0,0,0-.5,4.1c0,.3.8.8,1.2.8,4.2-.3,8.5-.8,12.7-1,7-.5,14-.9,21-1.1,2.5-.1,4.9.2,7.7.3a3.6,3.6,0,0,1-3.1,2.3A101.5,101.5,0,0,1,115,34.2c-3.5.1-6.9.7-10.4,1.1-.2,0-.3.2-.7.5h22.3v.3l-23.3,1.5v.5l19.6-.8c.3,1,.1,1.4-.8,1.5-3.8.2-7.7.5-11.5.9s-8.8.9-13.2,1.6c-2.7.3-5.3,1-7.9,1.5-1,.2-1.3.7-1.4,1.8a43.3,43.3,0,0,1-.8,5c-.4,2.3-.9,4.5-1.4,6.8a1.4,1.4,0,0,1-.7.8L85,55h-.3l-1.3,6a173,173,0,0,1,24.9-1.2l-1,1.3.2.2-2.2.5v.5l1.9.3-1.8.9a8.3,8.3,0,0,0-1.5,1.1l1.1.9a20.4,20.4,0,0,0-4.5,2.1c-2.9,2.2-6.5,1.9-9.7,2.9a37.1,37.1,0,0,0-4.6,1.9l-2.2.8-4.8,1.9a2.1,2.1,0,0,0-1,.6V76l.9-.2c-.1.5-.1.9-.2,1.5l1.2-.9a25,25,0,0,0-.2,2.5c-.9-.5-1.3-.9-1.4.6s-.9,4.7-1.2,7-.7,6.5-1,9.7-.4,3.5-.5,5.2-.5,5.9-.8,8.8h-.4v-2.2a26.4,26.4,0,0,0,.2-2.8,14.6,14.6,0,0,0-.4-5.9,2,2,0,0,1-.1-1.1c.3-3.4.7-6.8,1.1-10.2.1-1.2.1-2.4.3-3.6s1.1-5.1,1.6-7.7v-1h-.4A36.9,36.9,0,0,0,76,80.2c-.5,3.1-1,6.1-1.3,9.2s-.9,7.6-1.3,11.3-.6,8.2-.9,12.3a8.4,8.4,0,0,1-2.4,5.1l-.9.4v-1.8h-.3a5,5,0,0,1-.4,1.3,170,170,0,0,1,1.2-28.5l.6,1.2c.3-1.6.5-3.1.7-4.6s.8-5.9,1.1-8.9c.2-1.4-.9-.4-1.3-.5a2.6,2.6,0,0,0-2.5,1.1,7.4,7.4,0,0,0-2.1,0c-2.2.7-4.4,1.6-6.5,2.2l-8.5,2.4-2.8.8a1.6,1.6,0,0,0-.8,1c-.8,1.7-1.4,3.6-2.1,5.3S43,95.2,41.6,98c-.4.9-1.5,1.5-2.5,2.4.7-5.4,1.4-10.4,2-15.5h-.5L38,94h-.4V85.3a22.7,22.7,0,0,0-5.2.9,40.7,40.7,0,0,1-6.8,2c-4.3,1.2-8.6,2-13,3A34.9,34.9,0,0,0,2.3,94.7a5.4,5.4,0,0,1-2.2.5v-.5l13.6-6.1v-.3l-3.1.8L1.7,93.2l-1.4.3v-.4l11.7-5.7-.2-.4L6.4,89.3,2.9,90.8a1.4,1.4,0,0,1-1.1-.3,1.7,1.7,0,0,1-.2-1.4,5.5,5.5,0,0,1,1.7-2A105.6,105.6,0,0,1,27.8,76.7c3.9-1.3,7.8-2.8,11.6-4.3.5-.2.8-1.1.9-1.7l1.2-14.3c0-.2-.1-.5-.1-.8l-3.8.8c-4.3,1.3-8.6,2.5-12.8,4s-7,3.1-10.6,4.5a55.3,55.3,0,0,1-7.9,2.4c-1.7.4-2.1-.3-2.3-2.1a25.2,25.2,0,0,0-.5-3.7,6.2,6.2,0,0,1,.1-1.3l1.7,1.2.2-.2-2.7-4,.2-.3,1.6.9V56.3a8.1,8.1,0,0,0,6.8-.7c6.1-2.2,12.2-4.7,18.3-6.9,3.1-1.2,6.3-1.9,9.4-2.8,1.3-.4,2.7-.7,3.9-1.2a2.1,2.1,0,0,0,1.2-1.4c.5-2.2.8-4.4,1.1-6.7s.6-3.9.8-5.9-.4-1.3-.2-1.9c.5-2.3,1.2-4.5,1.7-6.8s.6-4.4,1-6.7c.1-.4.7-.7.9-1.1a18.7,18.7,0,0,0,.7-2.2l.8,2.6h.3l.5-3.1.6,1.8.6-.8.6,1c.2-.8.3-1.5.4-2.1a14.3,14.3,0,0,1,1.1,7.9c-.4,1.7-1,3.3-1.3,4.9s.2,2,.1,2.9-.5,2.7-.7,4.3l.5.3a21.4,21.4,0,0,1-.6,3.5c-.3.9-.9,1.7-1.2,2.6s.1.8.1,1.2h.5l-2.1,1c2,1.9,4,1,6,.6l18.5-4.6a1.2,1.2,0,0,0,.9-.9c.9-4.1,1.6-8.2,2.4-12.3.2-1.2.5-2.4.8-3.7ZM70.6,63.3l3.6-.8c.2-.1.4-.6.5-.9.4-2,.9-4,1.1-6A80.5,80.5,0,0,1,77.5,46v-.9H75.9L68,47.4a12.2,12.2,0,0,0-2.6.6c-2.2.7-4.2,1.6-6.4,2.4l-4.9,1.7a2,2,0,0,0-1.5,2,29.1,29.1,0,0,1-.4,3.1c-.6,3.7-1.1,7.3-1.7,11.2l1.2-.3,17.4-4.4a1.5,1.5,0,0,0,1.4-1.5c.1-.6.3-1.2.4-1.7h.5ZM84.4,52.1l-.3-.4c-.2.3-.6.5-.6.8l-1.2,6a4.1,4.1,0,0,0,.1,1.1h.5Zm.6,1.2h.5L87,44.7h-.6c-.4,2.9-.9,5.8-1.4,8.7ZM52.7,15.6h-.4l-.6,5.7H52ZM85,48.2h-.7l-.2,3h.4c.2-1,.3-2,.5-2.9Z"/>
    <path id="Path_2887-2" data-name="Path 2887" d="M56.4,32.4c-.9-.4-1.1-2.7,0-5.8Z"/>
    <path id="Path_2888-2" data-name="Path 2888" d="M69.4,88.5l.6-3.7h.5l-.4,3.7Z"/>
    <path id="Path_2889-2" data-name="Path 2889" d="M79,19.3c.3-1.9.5-3.8.8-5.6h.4L79,19.2Z"/>
    <path id="Path_2890-2" data-name="Path 2890" d="M70,83.9l.3-2.8h.5a28.3,28.3,0,0,0-.2,2.9Z"/>
  </g>
</svg>
