<?xml version="1.0" encoding="utf-8"?>
<!-- Generator: Adobe Illustrator 22.0.0, SVG Export Plug-In . SVG Version: 6.00 Build 0)  -->
<svg version="1.1" id="Layer_1" xmlns="http://www.w3.org/2000/svg" xmlns:xlink="http://www.w3.org/1999/xlink" x="0px" y="0px"
	 viewBox="0 0 135.7 123.5" style="enable-background:new 0 0 135.7 123.5;" xml:space="preserve">
<style type="text/css">
	.st0{opacity:0.22;}
	.st1{opacity:0.52;enable-background:new    ;}
	.st2{fill:#FFFFFF;}
</style>
<title>meshlogo-black</title>
<g id="Group_4" class="st0">
	<path id="Path_2886" class="st1" d="M82,24.2c-0.4,3-0.8,5.9-1.3,8.9s-0.8,5-1.3,7.7c1.5,0.1,2.1-0.3,2.4-1.9
		c0.8-6.8,1.9-13.5,2.9-20.2c0.1-1.5,0.2-3.1,0.1-4.6c0-0.5-0.4-1.1-0.3-1.5c0.7-2.3,1.4-4.6,2.2-7l1.4,1.1L88.5,5L91,6.4l0.7-1.1
		c2.3,0.8,3.5,3.3,2.7,5.6c-0.1,0.3-0.3,0.6-0.5,0.9c-0.8,2.6-0.7,5.4,0.2,7.9c0.5-2.2,1.1-4.5,1.6-6.8h0.5l-0.3,2.4
		c-0.3,1.7-0.5,3.4-0.7,5.1v0.2c-1.4,1.7-0.5,3.8-0.8,5.8s-0.6,4.1-0.8,6.1c-0.3,1.4-0.4,2.7-0.5,4.1c0,0.3,0.8,0.8,1.2,0.8
		c4.2-0.3,8.5-0.8,12.7-1c7-0.5,14-0.9,21-1.1c2.5-0.1,4.9,0.2,7.7,0.3c-0.5,1.3-1.7,2.2-3.1,2.3c-4.8,0.8-9.7,1.2-14.6,1.3
		c-3.5,0.1-6.9,0.7-10.4,1.1c-0.2,0-0.3,0.2-0.7,0.5h22.3v0.3l-23.3,1.5v0.5l19.6-0.8c0.3,1,0.1,1.4-0.8,1.5
		c-3.8,0.2-7.7,0.5-11.5,0.9s-8.8,0.9-13.2,1.6c-2.7,0.3-5.3,1-7.9,1.5c-1,0.2-1.3,0.7-1.4,1.8c-0.2,1.7-0.4,3.4-0.8,5
		c-0.4,2.3-0.9,4.5-1.4,6.8c-0.1,0.3-0.4,0.6-0.7,0.8L88,60h-0.3l-1.3,6c8.3-1,16.6-1.4,24.9-1.2l-1,1.3l0.2,0.2l-2.2,0.5v0.5
		l1.9,0.3l-1.8,0.9c-0.5,0.3-1,0.7-1.5,1.1l1.1,0.9c-1.6,0.5-3.1,1.2-4.5,2.1c-2.9,2.2-6.5,1.9-9.7,2.9c-1.6,0.5-3.1,1.2-4.6,1.9
		L87,78.2l-4.8,1.9c-0.4,0.1-0.7,0.3-1,0.6V81l0.9-0.2c-0.1,0.5-0.1,0.9-0.2,1.5l1.2-0.9c-0.1,0.8-0.2,1.7-0.2,2.5
		c-0.9-0.5-1.3-0.9-1.4,0.6s-0.9,4.7-1.2,7s-0.7,6.5-1,9.7s-0.4,3.5-0.5,5.2s-0.5,5.9-0.8,8.8h-0.4V113c0.1-0.9,0.2-1.9,0.2-2.8
		c0.3-2,0.1-4-0.4-5.9c-0.1-0.4-0.2-0.7-0.1-1.1c0.3-3.4,0.7-6.8,1.1-10.2c0.1-1.2,0.1-2.4,0.3-3.6s1.1-5.1,1.6-7.7v-1h-0.4
		c-0.4,1.5-0.7,3-0.9,4.5c-0.5,3.1-1,6.1-1.3,9.2s-0.9,7.6-1.3,11.3s-0.6,8.2-0.9,12.3c-0.2,1.9-1,3.7-2.4,5.1l-0.9,0.4v-1.8h-0.3
		c-0.1,0.4-0.2,0.9-0.4,1.3c-0.4-9.5,0-19.1,1.2-28.5l0.6,1.2c0.3-1.6,0.5-3.1,0.7-4.6s0.8-5.9,1.1-8.9c0.2-1.4-0.9-0.4-1.3-0.5
		c-1-0.1-1.9,0.3-2.5,1.1c-0.7-0.1-1.4-0.1-2.1,0c-2.2,0.7-4.4,1.6-6.5,2.2l-8.5,2.4l-2.8,0.8c-0.4,0.2-0.7,0.6-0.8,1
		c-0.8,1.7-1.4,3.6-2.1,5.3s-2.5,5.8-3.9,8.6c-0.4,0.9-1.5,1.5-2.5,2.4c0.7-5.4,1.4-10.4,2-15.5h-0.5L41,99h-0.4v-8.7
		c-1.8,0.1-3.5,0.4-5.2,0.9c-2.2,0.9-4.5,1.5-6.8,2c-4.3,1.2-8.6,2-13,3C12,96.8,8.5,98,5.3,99.7c-0.7,0.3-1.4,0.5-2.2,0.5v-0.5
		l13.6-6.1v-0.3l-3.1,0.8l-8.9,4.1l-1.4,0.3v-0.4L15,92.4L14.8,92l-5.4,2.3l-3.5,1.5c-0.4,0.1-0.8,0-1.1-0.3
		c-0.3-0.4-0.3-0.9-0.2-1.4c0.4-0.8,1-1.5,1.7-2c7.7-4.5,15.9-8,24.5-10.4c3.9-1.3,7.8-2.8,11.6-4.3c0.5-0.2,0.8-1.1,0.9-1.7
		l1.2-14.3c0-0.2-0.1-0.5-0.1-0.8l-3.8,0.8c-4.3,1.3-8.6,2.5-12.8,4c-4.2,1.5-7,3.1-10.6,4.5c-2.6,1-5.2,1.8-7.9,2.4
		C7.6,72.7,7.2,72,7,70.2c-0.1-1.2-0.2-2.5-0.5-3.7c0-0.4,0-0.9,0.1-1.3l1.7,1.2l0.2-0.2l-2.7-4L6,61.9l1.6,0.9v-1.5
		c2.3,0.8,4.7,0.5,6.8-0.7c6.1-2.2,12.2-4.7,18.3-6.9c3.1-1.2,6.3-1.9,9.4-2.8c1.3-0.4,2.7-0.7,3.9-1.2c0.6-0.3,1-0.8,1.2-1.4
		c0.5-2.2,0.8-4.4,1.1-6.7s0.6-3.9,0.8-5.9s-0.4-1.3-0.2-1.9c0.5-2.3,1.2-4.5,1.7-6.8s0.6-4.4,1-6.7c0.1-0.4,0.7-0.7,0.9-1.1
		c0.3-0.7,0.5-1.5,0.7-2.2l0.8,2.6h0.3l0.5-3.1l0.6,1.8l0.6-0.8l0.6,1c0.2-0.8,0.3-1.5,0.4-2.1c1.1,2.5,1.5,5.2,1.1,7.9
		c-0.4,1.7-1,3.3-1.3,4.9s0.2,2,0.1,2.9s-0.5,2.7-0.7,4.3l0.5,0.3c-0.1,1.2-0.3,2.4-0.6,3.5c-0.3,0.9-0.9,1.7-1.2,2.6S55,43.6,55,44
		h0.5l-2.1,1c2,1.9,4,1,6,0.6L77.9,41c0.4-0.1,0.8-0.5,0.9-0.9c0.9-4.1,1.6-8.2,2.4-12.3c0.2-1.2,0.5-2.4,0.8-3.7L82,24.2z
		 M73.6,68.3l3.6-0.8c0.2-0.1,0.4-0.6,0.5-0.9c0.4-2,0.9-4,1.1-6c0.4-3.2,0.9-6.4,1.7-9.6v-0.9h-1.6L71,52.4
		c-0.9,0.1-1.8,0.3-2.6,0.6c-2.2,0.7-4.2,1.6-6.4,2.4l-4.9,1.7c-0.9,0.2-1.5,1.1-1.5,2c-0.1,1-0.2,2.1-0.4,3.1
		c-0.6,3.7-1.1,7.3-1.7,11.2l1.2-0.3l17.4-4.4c0.8-0.1,1.4-0.7,1.4-1.5c0.1-0.6,0.3-1.2,0.4-1.7h0.5L73.6,68.3z M87.4,57.1l-0.3-0.4
		c-0.2,0.3-0.6,0.5-0.6,0.8l-1.2,6c0,0.4,0,0.7,0.1,1.1h0.5L87.4,57.1z M88,58.3h0.5l1.5-8.6h-0.6c-0.4,2.9-0.9,5.8-1.4,8.7V58.3z
		 M55.7,20.6h-0.4l-0.6,5.7H55L55.7,20.6z M88,53.2h-0.7l-0.2,3h0.4C87.7,55.2,87.8,54.2,88,53.2L88,53.2z"/>
	<path id="Path_2887" class="st2" d="M59.4,37.4c-0.9-0.4-1.1-2.7,0-5.8V37.4z"/>
	<path id="Path_2888" class="st2" d="M72.4,93.5l0.6-3.7h0.5l-0.4,3.7H72.4z"/>
	<path id="Path_2889" class="st2" d="M82,24.3c0.3-1.9,0.5-3.8,0.8-5.6h0.4L82,24.3L82,24.3z"/>
	<path id="Path_2890" class="st2" d="M73,88.9l0.3-2.8h0.5c-0.1,1-0.2,1.9-0.2,2.9L73,88.9z"/>
</g>
<g id="Group_4-2">
	<path id="Path_2886-2" class="st2" d="M79,19.2c-0.4,3-0.8,5.9-1.3,8.9s-0.8,5-1.3,7.7c1.5,0.1,2.1-0.3,2.4-1.9
		c0.8-6.8,1.9-13.5,2.9-20.2c0.1-1.5,0.2-3.1,0.1-4.6c0-0.5-0.4-1.1-0.3-1.5c0.7-2.3,1.4-4.6,2.2-7l1.4,1.1L85.5,0L88,1.4l0.7-1.1
		c2.3,0.8,3.5,3.3,2.7,5.6c-0.1,0.3-0.3,0.6-0.5,0.9c-0.8,2.6-0.7,5.4,0.2,7.9c0.5-2.2,1.1-4.5,1.6-6.8h0.5l-0.3,2.4
		c-0.3,1.7-0.5,3.4-0.7,5.1v0.2c-1.4,1.7-0.5,3.8-0.8,5.8s-0.6,4.1-0.8,6.1c-0.3,1.4-0.4,2.7-0.5,4.1c0,0.3,0.8,0.8,1.2,0.8
		c4.2-0.3,8.5-0.8,12.7-1c7-0.5,14-0.9,21-1.1c2.5-0.1,4.9,0.2,7.7,0.3c-0.5,1.3-1.7,2.2-3.1,2.3c-4.8,0.8-9.7,1.2-14.6,1.3
		c-3.5,0.1-6.9,0.7-10.4,1.1c-0.2,0-0.3,0.2-0.7,0.5h22.3v0.3l-23.3,1.5v0.5l19.6-0.8c0.3,1,0.1,1.4-0.8,1.5
		c-3.8,0.2-7.7,0.5-11.5,0.9s-8.8,0.9-13.2,1.6c-2.7,0.3-5.3,1-7.9,1.5c-1,0.2-1.3,0.7-1.4,1.8c-0.2,1.7-0.4,3.4-0.8,5
		c-0.4,2.3-0.9,4.5-1.4,6.8c-0.1,0.3-0.4,0.6-0.7,0.8L85,55h-0.3l-1.3,6c8.3-1,16.6-1.4,24.9-1.2l-1,1.3l0.2,0.2l-2.2,0.5v0.5
		l1.9,0.3l-1.8,0.9c-0.5,0.3-1,0.7-1.5,1.1l1.1,0.9c-1.6,0.5-3.1,1.2-4.5,2.1c-2.9,2.2-6.5,1.9-9.7,2.9c-1.6,0.5-3.1,1.2-4.6,1.9
		L84,73.2l-4.8,1.9c-0.4,0.1-0.7,0.3-1,0.6V76l0.9-0.2c-0.1,0.5-0.1,0.9-0.2,1.5l1.2-0.9c-0.1,0.8-0.2,1.7-0.2,2.5
		c-0.9-0.5-1.3-0.9-1.4,0.6s-0.9,4.7-1.2,7s-0.7,6.5-1,9.7s-0.4,3.5-0.5,5.2s-0.5,5.9-0.8,8.8h-0.4V108c0.1-0.9,0.2-1.9,0.2-2.8
		c0.3-2,0.1-4-0.4-5.9c-0.1-0.4-0.2-0.7-0.1-1.1c0.3-3.4,0.7-6.8,1.1-10.2c0.1-1.2,0.1-2.4,0.3-3.6s1.1-5.1,1.6-7.7v-1h-0.4
		c-0.4,1.5-0.7,3-0.9,4.5c-0.5,3.1-1,6.1-1.3,9.2s-0.9,7.6-1.3,11.3s-0.6,8.2-0.9,12.3c-0.2,1.9-1,3.7-2.4,5.1l-0.9,0.4v-1.8h-0.3
		c-0.1,0.4-0.2,0.9-0.4,1.3c-0.4-9.5,0-19.1,1.2-28.5l0.6,1.2c0.3-1.6,0.5-3.1,0.7-4.6s0.8-5.9,1.1-8.9c0.2-1.4-0.9-0.4-1.3-0.5
		c-1-0.1-1.9,0.3-2.5,1.1c-0.7-0.1-1.4-0.1-2.1,0c-2.2,0.7-4.4,1.6-6.5,2.2l-8.5,2.4l-2.8,0.8c-0.4,0.2-0.7,0.6-0.8,1
		c-0.8,1.7-1.4,3.6-2.1,5.3S43,95.2,41.6,98c-0.4,0.9-1.5,1.5-2.5,2.4c0.7-5.4,1.4-10.4,2-15.5h-0.5L38,94h-0.4v-8.7
		c-1.8,0.1-3.5,0.4-5.2,0.9c-2.2,0.9-4.5,1.5-6.8,2c-4.3,1.2-8.6,2-13,3C9,91.8,5.5,93,2.3,94.7c-0.7,0.3-1.4,0.5-2.2,0.5v-0.5
		l13.6-6.1v-0.3l-3.1,0.8l-8.9,4.1l-1.4,0.3v-0.4L12,87.4L11.8,87l-5.4,2.3l-3.5,1.5c-0.4,0.1-0.8,0-1.1-0.3
		c-0.3-0.4-0.3-0.9-0.2-1.4c0.4-0.8,1-1.5,1.7-2c7.7-4.5,15.9-8,24.5-10.4c3.9-1.3,7.8-2.8,11.6-4.3c0.5-0.2,0.8-1.1,0.9-1.7
		l1.2-14.3c0-0.2-0.1-0.5-0.1-0.8l-3.8,0.8c-4.3,1.3-8.6,2.5-12.8,4s-7,3.1-10.6,4.5c-2.6,1-5.2,1.8-7.9,2.4C4.6,67.7,4.2,67,4,65.2
		c-0.1-1.2-0.2-2.5-0.5-3.7c0-0.4,0-0.9,0.1-1.3l1.7,1.2l0.2-0.2l-2.7-4L3,56.9l1.6,0.9v-1.5c2.3,0.8,4.7,0.5,6.8-0.7
		c6.1-2.2,12.2-4.7,18.3-6.9c3.1-1.2,6.3-1.9,9.4-2.8c1.3-0.4,2.7-0.7,3.9-1.2c0.6-0.3,1-0.8,1.2-1.4c0.5-2.2,0.8-4.4,1.1-6.7
		s0.6-3.9,0.8-5.9s-0.4-1.3-0.2-1.9c0.5-2.3,1.2-4.5,1.7-6.8s0.6-4.4,1-6.7c0.1-0.4,0.7-0.7,0.9-1.1c0.3-0.7,0.5-1.5,0.7-2.2
		l0.8,2.6h0.3l0.5-3.1l0.6,1.8l0.6-0.8l0.6,1c0.2-0.8,0.3-1.5,0.4-2.1c1.1,2.5,1.5,5.2,1.1,7.9c-0.4,1.7-1,3.3-1.3,4.9
		s0.2,2,0.1,2.9s-0.5,2.7-0.7,4.3l0.5,0.3c-0.1,1.2-0.3,2.4-0.6,3.5c-0.3,0.9-0.9,1.7-1.2,2.6S52,38.6,52,39h0.5l-2.1,1
		c2,1.9,4,1,6,0.6L74.9,36c0.4-0.1,0.8-0.5,0.9-0.9c0.9-4.1,1.6-8.2,2.4-12.3c0.2-1.2,0.5-2.4,0.8-3.7L79,19.2z M70.6,63.3l3.6-0.8
		c0.2-0.1,0.4-0.6,0.5-0.9c0.4-2,0.9-4,1.1-6c0.4-3.2,0.9-6.4,1.7-9.6v-0.9h-1.6L68,47.4c-0.9,0.1-1.8,0.3-2.6,0.6
		c-2.2,0.7-4.2,1.6-6.4,2.4l-4.9,1.7c-0.9,0.2-1.5,1.1-1.5,2c-0.1,1-0.2,2.1-0.4,3.1c-0.6,3.7-1.1,7.3-1.7,11.2l1.2-0.3l17.4-4.4
		c0.8-0.1,1.4-0.7,1.4-1.5c0.1-0.6,0.3-1.2,0.4-1.7h0.5L70.6,63.3z M84.4,52.1l-0.3-0.4c-0.2,0.3-0.6,0.5-0.6,0.8l-1.2,6
		c0,0.4,0,0.7,0.1,1.1h0.5L84.4,52.1z M85,53.3h0.5l1.5-8.6h-0.6c-0.4,2.9-0.9,5.8-1.4,8.7V53.3z M52.7,15.6h-0.4l-0.6,5.7H52
		L52.7,15.6z M85,48.2h-0.7l-0.2,3h0.4C84.7,50.2,84.8,49.2,85,48.2L85,48.2z"/>
	<path id="Path_2887-2" class="st2" d="M56.4,32.4c-0.9-0.4-1.1-2.7,0-5.8V32.4z"/>
	<path id="Path_2888-2" class="st2" d="M69.4,88.5l0.6-3.7h0.5l-0.4,3.7H69.4z"/>
	<path id="Path_2889-2" class="st2" d="M79,19.3c0.3-1.9,0.5-3.8,0.8-5.6h0.4L79,19.3L79,19.3z"/>
	<path id="Path_2890-2" class="st2" d="M70,83.9l0.3-2.8h0.5c-0.1,1-0.2,1.9-0.2,2.9L70,83.9z"/>
</g>
</svg>
