<svg id="browser" xmlns="http://www.w3.org/2000/svg" viewBox="0 0 3207.3 2409.1">
  <defs>
    <style>
      .cls-1 {
        opacity: 0.41;
      }

      .cls-2 {
        fill: #fff;
      }

      .cls-3 {
        fill: #b3b2b2;
      }

      .cls-4 {
        fill: #c6c6c6;
      }

      .cls-5 {
        fill: #ededed;
      }

      .cls-6 {
        fill: #6cb52d;
      }

      .cls-7 {
        fill: #fecb3d;
      }

      .cls-8 {
        fill: #e83c43;
      }

      .cls-9 {
        fill: #919191;
      }
    </style>
  </defs>
  <title>browserwindow</title>
  <g class="cls-1">
    <rect class="cls-2" x="9.7" y="265.4" width="3189" height="2138.14" rx="34.5" ry="34.5"/>
    <path class="cls-3" d="M3164.2,270.9a29.1,29.1,0,0,1,29,29V2369.1a29.2,29.2,0,0,1-29,29H44.2a29.1,29.1,0,0,1-29-29V299.9a29,29,0,0,1,29-29h3120m0-11H44.2a40.1,40.1,0,0,0-40,40V2369.1a40.1,40.1,0,0,0,40,40h3120a40.1,40.1,0,0,0,40-40V299.9a40.1,40.1,0,0,0-40-40Z"/>
  </g>
  <g id="component">
    <rect class="cls-4" width="3207.3" height="183.21"/>
    <path class="cls-5" d="M1063.1,115.1l-14.6-67A21,21,0,0,0,1028,31.6H330.7a21,21,0,0,0-20.5,16.5l-14.6,67a20.6,20.6,0,0,1-20.1,16.2H0V292.4H3207.3V131.3H1083.2A20.6,20.6,0,0,1,1063.1,115.1Z"/>
    <circle class="cls-6" cx="233.6" cy="64.8" r="25.3"/>
    <circle class="cls-7" cx="152.7" cy="64.8" r="25.3"/>
    <circle class="cls-8" cx="71.7" cy="64.8" r="25.3"/>
    <path class="cls-9" d="M259.3,188.5a4,4,0,0,0-4.1,3.6l-.7,3.7a25.2,25.2,0,0,0-11.6-6.9,23.2,23.2,0,0,0-9.8-.7A25.4,25.4,0,0,0,211.3,208a20.6,20.6,0,0,0-.6,7,25.7,25.7,0,0,0,20,23.4,20.6,20.6,0,0,0,7,.6,25.6,25.6,0,0,0,23.6-21,3.9,3.9,0,0,0-5.1-4.4h0a3.9,3.9,0,0,0-2.7,3,17.6,17.6,0,1,1-3.9-14.7l-4.3,1.4h-.1a3.9,3.9,0,0,0-2.6,3.5,3.9,3.9,0,0,0,5.1,4l13-4.2,2.2-13.6A3.9,3.9,0,0,0,259.3,188.5Z"/>
    <g>
      <rect class="cls-9" x="985.8" y="76.7" width="43.2" height="9.08" rx="4.5" ry="4.5" transform="translate(237.6 736.1) rotate(-45)"/>
      <rect class="cls-9" x="1002.8" y="59.7" width="9.1" height="43.15" rx="4.5" ry="4.5" transform="translate(237.6 736.1) rotate(-45)"/>
    </g>
    <g>
      <rect class="cls-9" x="1088.1" y="75.2" width="57.6" height="12.13" rx="6" ry="6"/>
      <rect class="cls-9" x="1110.9" y="52.5" width="12.1" height="57.63" rx="6" ry="6"/>
    </g>
    <g>
      <path class="cls-9" d="M54.2,215.7l22.1,14.7c1.3.8,3.1,0,3.1-1.3V198.3c0-1.3-1.8-2.1-3.1-1.3L54.2,211.7A2.2,2.2,0,0,0,54.2,215.7Z"/>
      <rect class="cls-9" x="71" y="207.4" width="28.7" height="12.6"/>
    </g>
    <g>
      <path class="cls-9" d="M167.7,215.7l-22.2,14.7c-1.3.8-3.1,0-3.1-1.3V198.3c0-1.3,1.8-2.1,3.1-1.3l22.2,14.7A2.3,2.3,0,0,1,167.7,215.7Z"/>
      <rect class="cls-9" x="122.2" y="207.4" width="28.7" height="12.6"/>
    </g>
    <g>
      <path class="cls-9" d="M3163.5,27.2l-25.2,2.9a1.7,1.7,0,0,0-1,2.9l23.3,23.3a1.8,1.8,0,0,0,3-.9l2.9-25.2A2.6,2.6,0,0,0,3163.5,27.2Z"/>
      <rect class="cls-9" x="3132.2" y="41.5" width="26.8" height="13.07" transform="translate(887.4 2238.4) rotate(-45)"/>
      <path class="cls-9" d="M3098.7,98l25.2-2.9a1.8,1.8,0,0,0,.9-3l-23.3-23.2a1.7,1.7,0,0,0-2.9.9L3095.7,95A2.6,2.6,0,0,0,3098.7,98Z"/>
      <rect class="cls-9" x="3104.1" y="70.2" width="25.7" height="13.07" transform="translate(858.7 2226.5) rotate(-45)"/>
    </g>
    <rect class="cls-2" x="374.5" y="156.6" width="2722.3" height="108.37" rx="53.6" ry="53.6"/>
    <path class="cls-9" d="M3033.4,240.2a7.1,7.1,0,0,1-4.2-1.4l-10.9-7.9-10.8,7.9a7.6,7.6,0,0,1-4.3,1.4,7.3,7.3,0,0,1-7-9.6l4.2-12.7-10.9-7.9a7.3,7.3,0,0,1,4.3-13.2h13.4l4.2-12.7a7.2,7.2,0,0,1,13.8,0l4.2,12.7h13.4a7.3,7.3,0,0,1,4.3,13.2l-10.9,7.9,4.2,12.7a7.4,7.4,0,0,1-1,6.5A7.2,7.2,0,0,1,3033.4,240.2Zm-15.1-16,14.1,10.2a1.8,1.8,0,0,0,2.6-.5,1.8,1.8,0,0,0,.2-1.6l-5.4-16.5,14.1-10.2a1.6,1.6,0,0,0,.6-2.1,1.7,1.7,0,0,0-1.7-1.2h-17.4l-5.3-16.5a1.8,1.8,0,0,0-1.8-1.3,1.6,1.6,0,0,0-1.7,1.3l-5.4,16.5h-17.4a1.7,1.7,0,0,0-1.7,1.2,1.8,1.8,0,0,0,.6,2.1l14.1,10.2-5.4,16.5a1.5,1.5,0,0,0,.3,1.6,1.8,1.8,0,0,0,2.6.5Z"/>
    <circle class="cls-9" cx="3153.2" cy="184.6" r="8.7" transform="translate(2465.9 3267.4) rotate(-80.8)"/>
    <circle class="cls-9" cx="3153.2" cy="212.6" r="8.7" transform="translate(2438.2 3291) rotate(-80.8)"/>
    <circle class="cls-9" cx="3153.2" cy="240.6" r="8.7" transform="translate(147.9 1225) rotate(-22.5)"/>
  </g>
</svg>
