<svg id="cube" xmlns="http://www.w3.org/2000/svg" viewBox="0 0 268.1 307.4">
  <defs>
    <style>
      .cls-1, .cls-2, .cls-5, .cls-6, .cls-7 {
        fill: none;
      }

      .cls-1, .cls-2, .cls-3, .cls-4, .cls-5, .cls-6, .cls-7 {
        stroke: #fff;
      }

      .cls-1 {
        stroke-linecap: round;
        stroke-linejoin: round;
        stroke-width: 4px;
      }

      .cls-2, .cls-3, .cls-4, .cls-5, .cls-6, .cls-7 {
        stroke-miterlimit: 10;
      }

      .cls-2 {
        stroke-width: 3px;
      }

      .cls-3 {
        fill: #fff;
        stroke-width: 0.98px;
      }

      .cls-4 {
        stroke-width: 3.01px;
      }

      .cls-5, .cls-6, .cls-7 {
        stroke-width: 3.01px;
      }

      .cls-6 {
        stroke-dasharray: 19.76 10.98;
      }

      .cls-7 {
        stroke-dasharray: 19.77 10.98;
      }
    </style>
  </defs>
  <title>meshlogo</title>
  <g id="logo">
    <polygon id="polygon" class="cls-1" points="266.1 229.5 266.1 77.8 134 2 2 77.8 2 229.5 134 305.4 266.1 229.5"/>
    <polyline id="diagonalline" class="cls-2" points="2 77 134.1 154 265.4 78.3"/>
    <g id="wiremesh">
      <polygon class="cls-3" points="134.4 303.6 133.3 304.3 134.4 304.9 134.4 303.6"/>
      <polygon class="cls-3" points="134 196.7 39.9 250.8 41.7 251.9 134 198.8 134 196.7"/>
      <polygon class="cls-3" points="108.2 140 2.9 200.6 2.9 202.8 110.1 141.1 108.2 140"/>
      <polygon class="cls-3" points="46.4 104.1 3.1 129 3.1 131.1 48.2 105.2 46.4 104.1"/>
      <polygon class="cls-3" points="134.3 268 102.2 286.5 104 287.5 134.3 270.1 134.3 268"/>
      <polygon class="cls-3" points="134.1 232.3 71 268.6 72.9 269.7 134.1 234.4 134.1 232.3"/>
      <polygon class="cls-3" points="133.8 161 8.7 233 10.6 234.1 133.8 163.1 133.8 161"/>
      <polygon class="cls-3" points="77.3 122.1 3 164.8 3 167 79.1 123.1 77.3 122.1"/>
      <polygon class="cls-3" points="15.4 86.2 3.3 93.2 3.2 95.3 17.3 87.3 15.4 86.2"/>
      <polygon class="cls-3" points="134.1 214.5 55.5 259.7 57.3 260.8 134.1 216.6 134.1 214.5"/>
      <polygon class="cls-3" points="123.7 149 2.9 218.5 2.8 220.7 125.5 150 123.7 149"/>
      <polygon class="cls-3" points="61.8 113.1 3.1 146.9 3.1 149 63.7 114.2 61.8 113.1"/>
      <polygon class="cls-3" points="134.4 285.8 117.8 295.4 119.6 296.4 134.4 287.9 134.4 285.8"/>
      <polygon class="cls-3" points="134.2 250.1 86.6 277.6 88.5 278.6 134.2 252.3 134.2 250.1"/>
      <polygon class="cls-3" points="133.9 178.8 24.3 241.9 26.2 243 133.9 181 133.9 178.8"/>
      <polygon class="cls-3" points="92.7 131 3 182.7 3 184.9 94.6 132.1 92.7 131"/>
      <polygon class="cls-3" points="30.9 95.1 3.2 111.1 3.2 113.2 32.7 96.2 30.9 95.1"/>
      <polygon class="cls-3" points="134 205.6 47.7 255.3 49.5 256.4 134 207.7 134 205.6"/>
      <polygon class="cls-3" points="116 144.5 2.9 209.6 2.9 211.7 117.8 145.6 116 144.5"/>
      <polygon class="cls-3" points="54.1 108.6 3.1 138 3.1 140.1 56 109.7 54.1 108.6"/>
      <polygon class="cls-3" points="134.3 276.9 110 290.9 111.8 292 134.3 279 134.3 276.9"/>
      <polygon class="cls-3" points="134.2 241.2 78.8 273.1 80.7 274.2 134.2 243.4 134.2 241.2"/>
      <polygon class="cls-3" points="133.9 169.9 16.5 237.5 18.4 238.6 133.9 172.1 133.9 169.9"/>
      <polygon class="cls-3" points="85 126.5 3 173.8 3 175.9 86.9 127.6 85 126.5"/>
      <polygon class="cls-3" points="23.2 90.7 3.2 102.2 3.2 104.3 25 91.7 23.2 90.7"/>
      <polygon class="cls-3" points="134.1 223.4 63.3 264.2 65.1 265.3 134.1 225.6 134.1 223.4"/>
      <polygon class="cls-3" points="131.4 153.5 2.8 227.5 2.8 229.7 133.3 154.5 131.4 153.5"/>
      <polygon class="cls-3" points="69.6 117.6 3.1 155.9 3 158 71.4 118.7 69.6 117.6"/>
      <polygon class="cls-3" points="7.7 81.7 3.3 84.3 3.3 86.4 9.6 82.8 7.7 81.7"/>
      <polygon class="cls-3" points="134.4 294.7 125.6 299.8 127.4 300.9 134.4 296.9 134.4 294.7"/>
      <polygon class="cls-3" points="134.2 259.1 94.4 282 96.3 283.1 134.3 261.2 134.2 259.1"/>
      <polygon class="cls-3" points="133.9 187.8 32.1 246.4 34 247.5 133.9 189.9 133.9 187.8"/>
      <polygon class="cls-3" points="100.5 135.5 2.9 191.7 2.9 193.8 102.3 136.6 100.5 135.5"/>
      <polygon class="cls-3" points="38.6 99.6 3.2 120.1 3.2 122.2 40.5 100.7 38.6 99.6"/>
    </g>
    <line id="centralline" class="cls-4" x1="134" y1="153.3" x2="134" y2="305.4"/>
    <g id="dottedline">
      <g>
        <line class="cls-5" x1="134" y1="2" x2="134" y2="11"/>
        <line class="cls-6" x1="134.1" y1="22" x2="134.1" y2="139.5"/>
        <polyline class="cls-5" points="134.1 145 134.1 154 141.9 158.5"/>
        <line class="cls-7" x1="151.5" y1="163.9" x2="253.5" y2="222.3"/>
        <line class="cls-5" x1="258.2" y1="225" x2="266.1" y2="229.5"/>
      </g>
    </g>
  </g>
</svg>
