<?xml version="1.0" standalone="no"?>
<!DOCTYPE svg PUBLIC "-//W3C//DTD SVG 20010904//EN"
 "http://www.w3.org/TR/2001/REC-SVG-20010904/DTD/svg10.dtd">
<svg version="1.0" xmlns="http://www.w3.org/2000/svg"
 width="383.000000pt" height="383.000000pt" viewBox="0 0 383.000000 383.000000"
 preserveAspectRatio="xMidYMid meet">
<metadata>
Created by potrace 1.11, written by Peter Selinger 2001-2013
</metadata>
<g transform="translate(0.000000,383.000000) scale(0.100000,-0.100000)"
fill="#000000" stroke="none">
<path d="M2463 3612 c-6 -25 -8 -26 -32 -13 -15 9 -21 -1 -46 -76 -24 -73 -29
-105 -31 -207 -1 -67 -5 -137 -8 -156 -3 -19 -10 -60 -15 -90 -6 -30 -12 -75
-15 -100 -4 -25 -8 -56 -11 -70 -3 -14 -7 -47 -10 -75 -3 -27 -8 -57 -10 -65
-2 -8 -7 -40 -10 -70 -9 -68 -20 -90 -46 -90 -19 0 -20 4 -15 45 4 25 9 50 11
57 2 7 14 78 25 158 12 80 23 156 25 170 3 14 -2 6 -10 -18 -8 -24 -17 -65
-20 -90 -3 -26 -7 -54 -10 -62 -2 -8 -7 -28 -10 -45 -9 -49 -26 -138 -31 -170
-3 -16 -11 -36 -18 -43 -11 -11 -76 -32 -146 -47 -8 -2 -118 -29 -243 -59
-243 -60 -268 -63 -307 -42 l-25 14 26 12 c19 9 25 18 22 31 -3 11 5 43 17 72
17 37 24 77 27 137 2 47 5 117 7 155 1 39 11 97 21 130 21 71 23 160 5 233
-13 56 -30 78 -30 39 0 -30 -31 -32 -43 -3 -4 10 -9 17 -12 14 -4 -4 -12 -39
-15 -68 -1 -8 -9 3 -19 25 l-18 40 -6 -35 c-4 -18 -14 -41 -22 -50 -8 -9 -19
-50 -25 -91 -6 -40 -22 -121 -36 -179 -15 -58 -28 -139 -29 -180 -2 -41 -11
-124 -20 -185 -9 -60 -19 -125 -21 -144 -2 -19 -11 -45 -19 -57 -16 -25 -17
-25 -230 -84 -129 -37 -496 -170 -705 -258 -51 -21 -80 -27 -133 -26 -50 1
-67 -2 -67 -12 0 -17 -12 -18 -27 -3 -6 6 -13 7 -16 2 -3 -5 10 -31 28 -58 42
-61 43 -71 8 -48 l-26 17 6 -54 c14 -106 16 -120 27 -140 10 -19 17 -21 53
-15 46 8 201 57 251 79 207 94 337 142 573 210 128 38 189 48 187 31 -1 -5 -5
-57 -9 -115 -3 -58 -8 -118 -10 -135 -2 -16 -6 -63 -10 -104 -3 -41 -10 -82
-15 -91 -5 -9 -49 -32 -97 -50 -48 -18 -101 -39 -118 -46 -16 -7 -104 -36
-195 -65 -91 -28 -183 -60 -205 -70 -22 -10 -69 -30 -105 -44 -78 -32 -265
-126 -320 -160 -45 -28 -69 -60 -65 -83 2 -9 4 -20 4 -24 2 -18 53 -5 160 42
63 27 116 48 118 47 2 -2 -69 -39 -158 -83 -88 -43 -163 -83 -166 -88 -12 -18
64 8 180 64 124 58 195 85 203 78 3 -4 -240 -117 -350 -163 -37 -16 -48 -35
-20 -35 9 0 50 15 92 34 113 49 152 60 427 120 138 31 286 67 330 82 43 14
109 32 146 39 80 15 75 24 74 -127 -1 -100 6 -134 19 -90 44 158 70 240 76
237 4 -2 4 -26 0 -52 -11 -65 -21 -141 -26 -183 -2 -19 -10 -74 -17 -122 -11
-77 -11 -86 3 -78 48 26 88 100 185 338 67 165 44 146 250 202 77 21 181 52
230 70 50 17 106 33 125 35 19 2 49 10 65 19 17 9 43 16 58 16 27 0 27 -1 22
-47 -7 -61 -12 -95 -20 -158 -4 -27 -8 -61 -10 -75 -11 -81 -18 -109 -27 -107
-11 2 -12 0 -23 -113 -15 -159 -17 -192 -21 -433 -3 -165 -1 -246 6 -242 5 3
10 -3 10 -14 0 -29 16 -26 46 6 48 52 53 74 69 298 12 172 32 375 50 518 3 20
7 56 10 80 11 83 45 265 54 288 9 23 10 23 10 2 1 -12 -6 -53 -14 -92 -8 -39
-17 -85 -20 -103 -3 -18 -7 -44 -10 -58 -2 -14 -7 -59 -11 -100 -3 -41 -9
-104 -14 -140 -4 -36 -6 -105 -4 -155 6 -110 7 -185 4 -245 -1 -25 -1 -56 0
-70 4 -44 17 30 25 143 10 133 11 142 18 207 9 78 17 158 23 231 2 35 11 98
19 139 21 108 23 122 24 154 1 23 5 27 21 23 11 -3 20 0 21 6 0 7 2 22 5 35 3
20 1 22 -16 17 -15 -5 -18 -3 -14 9 4 11 0 16 -12 16 -18 1 -18 1 1 12 10 6
76 33 145 61 69 27 145 57 170 67 25 10 85 25 134 35 89 16 107 23 220 84 32
17 64 31 72 31 19 0 18 19 -1 27 -12 4 -7 12 22 31 46 30 62 44 48 42 -5 -2
-18 -2 -28 -1 -25 1 -11 21 16 21 21 0 54 46 39 53 -26 13 -503 -7 -659 -28
-45 -6 -44 -9 -28 65 2 8 4 23 4 34 1 12 6 16 15 13 17 -7 24 11 42 103 2 14
11 56 20 93 8 38 17 89 20 114 10 87 10 87 136 112 149 30 188 36 283 47 33 3
67 8 76 9 9 2 52 6 95 10 43 4 93 9 109 11 27 3 63 6 247 19 54 4 68 10 68 31
0 16 -104 15 -455 -2 -66 -3 -117 -3 -113 1 6 7 32 9 213 20 55 3 129 8 165
10 36 3 112 7 170 10 58 4 109 11 115 16 5 6 -110 9 -303 8 -172 -1 -316 1
-319 5 -3 3 5 6 18 7 13 0 32 2 41 4 10 2 44 6 75 10 56 6 84 8 315 20 59 3
115 8 125 9 10 2 47 7 83 11 89 9 126 22 144 51 12 18 13 24 4 25 -7 0 -22 2
-33 5 -29 6 -266 6 -360 0 -44 -3 -127 -8 -185 -11 -213 -11 -277 -15 -440
-30 -176 -15 -177 -15 -190 0 -8 10 -10 29 -6 58 4 23 10 62 12 87 3 25 9 67
13 93 5 27 9 82 9 123 0 41 5 81 11 87 5 7 13 35 16 62 3 28 8 61 10 75 22
128 8 154 -19 38 -27 -112 -27 -113 -37 -97 -12 21 -5 180 10 208 18 32 16 97
-4 127 -8 13 -27 31 -41 41 -24 15 -27 15 -35 0 -10 -18 -33 -14 -62 11 -16
15 -18 14 -24 -6z m-953 -502 c-6 -42 -8 -47 -9 -20 -1 34 8 84 14 78 2 -2 0
-28 -5 -58z m-7 -75 c-3 -9 -8 -14 -10 -11 -3 3 -2 9 2 15 9 16 15 13 8 -4z
m1002 -714 c-2 -5 -7 -30 -10 -57 -4 -26 -8 -50 -10 -53 -2 -3 -6 -31 -10 -61
-7 -53 -11 -68 -18 -59 -8 9 36 248 45 243 4 -3 6 -9 3 -13z m-278 -33 c-3
-24 -12 -81 -21 -128 -8 -47 -17 -105 -20 -130 -3 -25 -8 -56 -11 -70 -3 -14
-10 -45 -14 -69 -11 -53 -23 -65 -79 -79 -37 -9 -43 -8 -38 5 14 36 17 63 8
63 -5 0 -13 -16 -16 -35 -5 -23 -15 -39 -29 -45 -36 -16 -539 -142 -544 -137
-2 3 0 31 6 63 13 72 17 103 26 174 4 30 9 62 10 70 1 8 6 38 10 67 4 28 12
58 18 66 13 16 325 133 392 148 22 5 96 24 165 43 69 19 129 35 134 35 5 1 6
-18 3 -41z m214 -100 l-9 -33 -1 36 c-1 20 2 39 6 43 13 12 15 -10 4 -46z
m-20 -120 c-6 -29 -13 -69 -16 -88 -9 -53 -16 -71 -25 -65 -5 3 -7 11 -5 18 4
12 9 38 21 122 7 43 22 80 31 72 2 -3 0 -29 -6 -59z m29 -48 c0 -11 -4 -20 -9
-20 -5 0 -7 9 -4 20 3 11 7 20 9 20 2 0 4 -9 4 -20z"/>
<path d="M2297 3193 c-9 -51 -2 -53 11 -3 5 22 6 40 2 40 -4 0 -10 -17 -13
-37z"/>
<path d="M2283 3125 c-3 -9 -3 -18 -1 -21 3 -3 8 4 11 16 6 23 -1 27 -10 5z"/>
<path d="M1614 2823 c-11 -53 -9 -112 5 -126 8 -8 11 12 11 76 0 48 -2 87 -4
87 -2 0 -7 -17 -12 -37z"/>
<path d="M2028 1284 c-5 -4 -8 -25 -8 -48 0 -28 3 -37 11 -29 6 6 9 27 7 48
-2 20 -6 33 -10 29z"/>
<path d="M2015 1158 c-10 -46 -10 -81 0 -85 6 -2 12 13 13 34 2 21 5 46 8 56
3 9 1 17 -5 17 -6 0 -13 -10 -16 -22z"/>
</g>
</svg>
