<svg id="browser" xmlns="http://www.w3.org/2000/svg" viewBox="0 0 3207.3 1836.6">
  <defs>
    <style>
      .cls-1 {
        fill: #c6c6c6;
      }

      .cls-2 {
        fill: #ededed;
      }

      .cls-3 {
        fill: #6cb52d;
      }

      .cls-4 {
        fill: #fecb3d;
      }

      .cls-5 {
        fill: #e83c43;
      }

      .cls-6 {
        fill: #919191;
      }

      .cls-7 {
        fill: #fff;
      }

      .cls-8 {
        fill: #8c8c8c;
        opacity: 0.25;
      }
    </style>
  </defs>
  <title>browserwindow</title>
  <g id="browserheader">
    <rect class="cls-1" width="3207.3" height="183.21"/>
    <path class="cls-2" d="M1063.1,115.1l-14.6-67A21,21,0,0,0,1028,31.6H330.7a21,21,0,0,0-20.5,16.5l-14.6,67a20.6,20.6,0,0,1-20.1,16.2H0V292.4H3207.3V131.3H1083.2A20.6,20.6,0,0,1,1063.1,115.1Z" transform="translate(0 0)"/>
    <circle class="cls-3" cx="233.6" cy="64.8" r="25.3" transform="translate(129.3 283.6) rotate(-80)"/>
    <circle class="cls-4" cx="152.7" cy="64.8" r="25.3"/>
    <circle class="cls-5" cx="71.7" cy="64.8" r="25.3"/>
    <path class="cls-6" d="M259.3,188.5a4,4,0,0,0-4.1,3.6l-.7,3.7a25.6,25.6,0,0,0-11.6-6.9,23.2,23.2,0,0,0-9.8-.7A25.4,25.4,0,0,0,211.3,208a20.6,20.6,0,0,0-.6,7,25.6,25.6,0,0,0,20,23.4,20.6,20.6,0,0,0,7,.6,25.5,25.5,0,0,0,23.6-21,3.8,3.8,0,0,0-3.1-4.5,3.4,3.4,0,0,0-2,.1h0a3.9,3.9,0,0,0-2.7,3,17.7,17.7,0,1,1-3.9-14.7l-4.3,1.4h-.1a4,4,0,1,0,2.5,7.5l13-4.2,2.2-13.6a4,4,0,0,0-3.2-4.5Z" transform="translate(0 0)"/>
    <g>
      <rect class="cls-6" x="985.8" y="76.7" width="43.2" height="9.08" rx="4.5" ry="4.5" transform="translate(237.6 736.1) rotate(-45)"/>
      <rect class="cls-6" x="1002.8" y="59.7" width="9.1" height="43.15" rx="4.5" ry="4.5" transform="translate(237.6 736.1) rotate(-45)"/>
    </g>
    <g>
      <rect class="cls-6" x="1088.1" y="75.2" width="57.6" height="12.13" rx="6" ry="6"/>
      <rect class="cls-6" x="1110.9" y="52.5" width="12.1" height="57.63" rx="6" ry="6"/>
    </g>
    <g>
      <path class="cls-6" d="M54.2,215.7l22.1,14.7c1.3.8,3.1,0,3.1-1.3V198.3c0-1.3-1.8-2.1-3.1-1.3L54.2,211.7a2.2,2.2,0,0,0-1.1,2.9A2,2,0,0,0,54.2,215.7Z" transform="translate(0 0)"/>
      <rect class="cls-6" x="71" y="207.4" width="28.7" height="12.6"/>
    </g>
    <g>
      <path class="cls-6" d="M167.7,215.7l-22.2,14.7c-1.3.8-3.1,0-3.1-1.3V198.3c0-1.3,1.8-2.1,3.1-1.3l22.2,14.7a2.3,2.3,0,0,1,.9,3.1A2,2,0,0,1,167.7,215.7Z" transform="translate(0 0)"/>
      <rect class="cls-6" x="122.2" y="207.4" width="28.7" height="12.6"/>
    </g>
    <g>
      <path class="cls-6" d="M3163.5,27.2l-25.2,2.9a1.7,1.7,0,0,0-1.5,1.9,1.4,1.4,0,0,0,.5,1l23.3,23.3a1.7,1.7,0,0,0,2.5-.1,1.4,1.4,0,0,0,.5-.8l2.9-25.2a2.6,2.6,0,0,0-2.1-3Z" transform="translate(0 0)"/>
      <rect class="cls-6" x="3132.2" y="41.6" width="26.8" height="13.07" transform="translate(887.3 2238.4) rotate(-45)"/>
      <path class="cls-6" d="M3098.7,98l25.2-2.9a1.8,1.8,0,0,0,1.4-2.2,2.2,2.2,0,0,0-.5-.8l-23.3-23.2a1.6,1.6,0,0,0-2.4,0,1.3,1.3,0,0,0-.5.9L3095.7,95a2.6,2.6,0,0,0,2.1,3Z" transform="translate(0 0)"/>
      <rect class="cls-6" x="3104.1" y="70.2" width="25.7" height="13.07" transform="translate(858.7 2226.5) rotate(-45)"/>
    </g>
    <rect class="cls-7" x="374.5" y="156.6" width="2722.3" height="108.37" rx="53.6" ry="53.6"/>
    <path class="cls-6" d="M3033.4,240.2a7.1,7.1,0,0,1-4.2-1.4l-10.9-7.9-10.8,7.9a7.6,7.6,0,0,1-4.3,1.4,7.4,7.4,0,0,1-7.4-7.2,6.7,6.7,0,0,1,.4-2.4l4.2-12.7-10.9-7.9a7.2,7.2,0,0,1-1.6-10.2,7.3,7.3,0,0,1,5.9-3h13.4l4.2-12.7a7.1,7.1,0,0,1,9-4.8,7.2,7.2,0,0,1,4.8,4.8l4.2,12.7h13.4a7.3,7.3,0,0,1,4.3,13.2l-10.9,7.9,4.2,12.7a7.5,7.5,0,0,1-1,6.5A7.2,7.2,0,0,1,3033.4,240.2Zm-15.1-16,14.1,10.2a1.8,1.8,0,0,0,2.5-.4h.1a1.8,1.8,0,0,0,.2-1.6l-5.4-16.5,14.1-10.2a1.6,1.6,0,0,0,.6-2.1,1.7,1.7,0,0,0-1.7-1.2h-17.4l-5.3-16.5a1.8,1.8,0,0,0-1.8-1.3,1.6,1.6,0,0,0-1.7,1.3l-5.4,16.5h-17.4a1.7,1.7,0,0,0-1.7,1.2,1.9,1.9,0,0,0,.6,2.1l14.1,10.2-5.4,16.5a1.6,1.6,0,0,0,.3,1.6,1.9,1.9,0,0,0,2.5.6h.1Z" transform="translate(0 0)"/>
    <circle class="cls-6" cx="3152.3" cy="184.3" r="8.7" transform="translate(2466.4 3266.5) rotate(-80.8)"/>
    <circle class="cls-6" cx="3152.2" cy="212.4" r="8.7" transform="translate(2438.6 3290.1) rotate(-80.8)"/>
    <circle class="cls-6" cx="3153.2" cy="240.6" r="8.7" transform="matrix(0.92, -0.38, 0.38, 0.92, 147.94, 1224.97)"/>
    <rect class="cls-2" y="291" width="3207.3" height="1545.63"/>
  </g>
  <g id="fullwidth">
    <rect class="cls-7" x="69.5" y="451" width="3088.6" height="1129.38" rx="31.2" ry="31.2"/>
    <rect class="cls-8" x="170.8" y="553.5" width="316.9" height="316.88" rx="50.3" ry="50.3"/>
    <rect class="cls-8" x="568.8" y="618.6" width="2317.6" height="40"/>
    <rect class="cls-8" x="568.8" y="792.1" width="1925" height="40"/>
    <rect class="cls-8" x="165.1" y="964.4" width="1695.7" height="40"/>
    <rect class="cls-8" x="165.1" y="1151.7" width="1408.4" height="40"/>
    <rect class="cls-8" x="165.1" y="1339" width="1695.7" height="40"/>
  </g>
  <g id="container">
    <rect class="cls-7" x="493.8" y="451" width="2240" height="1129.38" rx="31.2" ry="31.2"/>
    <rect class="cls-8" x="589.5" y="577.9" width="300.5" height="300" rx="50.3" ry="50.3"/>
    <rect class="cls-8" x="947.8" y="614.7" width="1680.8" height="40"/>
    <rect class="cls-8" x="947.8" y="784.1" width="1396.1" height="40"/>
    <rect class="cls-8" x="589.5" y="966.6" width="1229.8" height="40"/>
    <rect class="cls-8" x="589.5" y="1155.7" width="1021.4" height="40"/>
    <rect class="cls-8" x="589.5" y="1344.7" width="1229.8" height="40"/>
  </g>
</svg>
