<svg id="Layer_1" data-name="Layer 1" xmlns="http://www.w3.org/2000/svg" viewBox="0 0 414.4 280.2">
  <defs>
    <style>
      .cls-1 {
        fill-opacity: 0.53;
      }

      .cls-2 {
        fill-opacity: 0.43;
      }

      .cls-3 {
        fill-opacity: 0.5;
      }

      .cls-4 {
        fill-opacity: 0.06;
      }

      .cls-5 {
        fill-opacity: 0.32;
      }

      .cls-6 {
        fill-opacity: 0.41;
      }

      .cls-7 {
        fill-opacity: 0.11;
      }

      .cls-8 {
        fill-opacity: 0.01;
      }

      .cls-9 {
        fill-opacity: 0.4;
      }

      .cls-10 {
        fill-opacity: 0.13;
      }

      .cls-11 {
        fill-opacity: 0.2;
      }

      .cls-12 {
        fill-opacity: 0.52;
      }

      .cls-13 {
        fill-opacity: 0.26;
      }

      .cls-14 {
        fill-opacity: 0.04;
      }

      .cls-15 {
        fill-opacity: 0.28;
      }

      .cls-16 {
        fill-opacity: 0.23;
      }

      .cls-17 {
        fill-opacity: 0.33;
      }

      .cls-18 {
        fill-opacity: 0.19;
      }

      .cls-19 {
        fill-opacity: 0.3;
      }

      .cls-20 {
        fill-opacity: 0.47;
      }

      .cls-21 {
        fill-opacity: 0.14;
      }

      .cls-22 {
        fill-opacity: 0.36;
      }

      .cls-23 {
        fill-opacity: 0.49;
      }

      .cls-24 {
        fill-opacity: 0.09;
      }

      .cls-25 {
        fill-opacity: 0.39;
      }

      .cls-26 {
        fill-opacity: 0.42;
      }

      .cls-27 {
        fill-opacity: 0.46;
      }

      .cls-28 {
        fill-opacity: 0.12;
      }

      .cls-29 {
        fill-opacity: 0.45;
      }

      .cls-30 {
        fill-opacity: 0.17;
      }

      .cls-31 {
        fill-opacity: 0.35;
      }

      .cls-32 {
        fill-opacity: 0.24;
      }

      .cls-33 {
        fill-opacity: 0.02;
      }

      .cls-34 {
        fill-opacity: 0.03;
      }

      .cls-35 {
        fill-opacity: 0.29;
      }

      .cls-36 {
        fill-opacity: 0.27;
      }

      .cls-37 {
        fill-opacity: 0.15;
      }

      .cls-38 {
        fill-opacity: 0.07;
      }

      .cls-39 {
        fill-opacity: 0.1;
      }

      .cls-40 {
        fill-opacity: 0.08;
      }

      .cls-41 {
        fill-opacity: 0.25;
      }

      .cls-42 {
        fill-opacity: 0.37;
      }

      .cls-43 {
        fill-opacity: 0.48;
      }
    </style>
  </defs>
  <title>home-wire</title>
  <g id="wire">
    <path class="cls-1" d="M298.1,188.2a.6.6,0,1,1,.3-.8.6.6,0,0,1-.3.8Z" transform="translate(-32.9)"/>
    <path class="cls-1" d="M322.9,190a.7.7,0,1,1-.5-1.2.7.7,0,0,1,.8.4.6.6,0,0,1-.3.8Z" transform="translate(-32.9)"/>
    <path class="cls-1" d="M341.1,171.8a.6.6,0,1,1,.3-.8.6.6,0,0,1-.3.8Z" transform="translate(-32.9)"/>
    <path class="cls-1" d="M257.5,189.7a.6.6,0,0,1-.8-.3h0a.6.6,0,1,1,1.1-.5h0a.6.6,0,0,1-.3.8Z" transform="translate(-32.9)"/>
    <path class="cls-1" d="M373.2,175a.7.7,0,0,1-.8-.4.6.6,0,0,1,.3-.8h0a.8.8,0,0,1,.9.3C373.7,174.5,373.6,174.9,373.2,175Z" transform="translate(-32.9)"/>
    <path class="cls-1" d="M415.6,192.6a.6.6,0,0,1-.8-.3h0a.8.8,0,0,1,.3-.9c.4-.1.8,0,.9.4a.6.6,0,0,1-.3.8Z" transform="translate(-32.9)"/>
    <path class="cls-1" d="M210.2,188.6a.8.8,0,0,1-.9-.4.6.6,0,0,1,.3-.8h.1a.6.6,0,0,1,.8.3h0A.8.8,0,0,1,210.2,188.6Z" transform="translate(-32.9)"/>
    <path class="cls-1" d="M306.3,170.1c-.4.1-.8,0-.9-.4a.7.7,0,0,1,.4-.8.6.6,0,0,1,.8.3h0A.8.8,0,0,1,306.3,170.1Z" transform="translate(-32.9)"/>
    <path class="cls-1" d="M213.2,243.4a.6.6,0,0,1-.8-.3h0a.6.6,0,0,1,.3-.8h0a.8.8,0,0,1,.9.3C213.7,242.9,213.6,243.3,213.2,243.4Z" transform="translate(-32.9)"/>
    <path class="cls-1" d="M154.9,223.8a.6.6,0,0,1-.8-.3h0a.8.8,0,0,1,.3-.9c.4-.1.8,0,.9.4a.6.6,0,0,1-.3.8Z" transform="translate(-32.9)"/>
    <path class="cls-1" d="M350.4,141.5c-.4.1-.8,0-.9-.4a.6.6,0,0,1,.3-.8h.1a.6.6,0,0,1,.8.3h0C350.8,141,350.7,141.4,350.4,141.5Z" transform="translate(-32.9)"/>
    <path class="cls-1" d="M290.3,155.2a.8.8,0,0,1-.9-.3c-.1-.4,0-.8.4-.9a.6.6,0,0,1,.8.3h0a.5.5,0,0,1-.2.8Z" transform="translate(-32.9)"/>
    <path class="cls-1" d="M340.4,187.5a.8.8,0,0,1-.9-.3c-.1-.4,0-.8.4-.9a.6.6,0,0,1,.8.3h0a.6.6,0,0,1-.3.8Z" transform="translate(-32.9)"/>
    <path class="cls-1" d="M363.6,182.3c-.4.1-.8,0-.9-.4s0-.8.4-.9a.7.7,0,0,1,.9.5.9.9,0,0,1-.4.8Z" transform="translate(-32.9)"/>
    <path class="cls-1" d="M112,193.8a.7.7,0,1,1-.5-1.2.5.5,0,0,1,.8.2v.2a.6.6,0,0,1-.3.8Z" transform="translate(-32.9)"/>
    <path class="cls-1" d="M446.9,219c-.4.1-.8,0-.9-.4a.8.8,0,0,1,.4-.9c.4-.1.8,0,.9.4A.7.7,0,0,1,446.9,219Z" transform="translate(-32.9)"/>
    <path class="cls-1" d="M178,178.2a.7.7,0,1,1-.5-1.2.5.5,0,0,1,.8.2.1.1,0,0,1,.1.1C178.5,177.7,178.4,178.1,178,178.2Z" transform="translate(-32.9)"/>
    <path class="cls-1" d="M437.7,215.3a.5.5,0,0,1-.8-.2v-.2a.7.7,0,1,1,1.2-.5.5.5,0,0,1-.2.8A.1.1,0,0,1,437.7,215.3Z" transform="translate(-32.9)"/>
    <path class="cls-1" d="M297,127.9a.8.8,0,0,1-.9-.4c-.1-.4,0-.8.4-.9a.5.5,0,0,1,.8.2.1.1,0,0,1,.1.1.6.6,0,0,1-.3.9A.1.1,0,0,1,297,127.9Z" transform="translate(-32.9)"/>
    <path class="cls-1" d="M431.9,235.2a.6.6,0,0,1-.9-.3h-.1a.8.8,0,0,1,.4-.9.6.6,0,0,1,.9.3.1.1,0,0,1,.1.1C432.4,234.7,432.3,235.1,431.9,235.2Z" transform="translate(-32.9)"/>
    <path class="cls-1" d="M339.5,198.9a.5.5,0,0,1-.8-.2v-.2a.8.8,0,0,1,.3-1,1,1,0,0,1,1,.4.6.6,0,0,1-.3.9Z" transform="translate(-32.9)"/>
    <path class="cls-1" d="M73.7,155.9a.6.6,0,0,1-.9-.3h-.1a.5.5,0,0,1,.2-.8h.2a.6.6,0,0,1,.9.3h.1C74.2,155.4,74.1,155.8,73.7,155.9Z" transform="translate(-32.9)"/>
    <path class="cls-1" d="M314.3,47a.4.4,0,0,1-.5-.1v-.2a.5.5,0,0,1,.2-.6c.2-.1.5.1.6.3A.5.5,0,0,1,314.3,47Z" transform="translate(-32.9)"/>
    <path class="cls-1" d="M147.9,163.7a.6.6,0,0,1-.9-.3h-.1a.8.8,0,0,1,.4-1,.6.6,0,0,1,.9.3h.1a.6.6,0,0,1-.3.9Z" transform="translate(-32.9)"/>
    <path class="cls-1" d="M275,109.1a.8.8,0,0,1-1.1-.4,1,1,0,0,1,.5-1.1.8.8,0,0,1,1,.4.9.9,0,0,1-.3,1.1Z" transform="translate(-32.9)"/>
    <path class="cls-1" d="M243.9,79.8a1,1,0,0,1-1.1-.5.6.6,0,0,1,.3-.9.1.1,0,0,1,.1-.1.8.8,0,1,1,.7,1.5Z" transform="translate(-32.9)"/>
    <path class="cls-1" d="M159.3,119.5a.9.9,0,0,1-1.1-.3h0a1,1,0,0,1,.5-1.1.6.6,0,0,1,.9.3.1.1,0,0,1,.1.1.9.9,0,0,1-.3,1.1Z" transform="translate(-32.9)"/>
    <path class="cls-1" d="M126.8,147.5a.8.8,0,1,1,.4-1.1h0a.6.6,0,0,1-.3.9Z" transform="translate(-32.9)"/>
    <path class="cls-1" d="M256.4,71.9a.7.7,0,0,1-.9-.3v-.2a.6.6,0,0,1,.3-.9h.1a.9.9,0,0,1,1.1.3h0a.8.8,0,0,1-.4,1.1Z" transform="translate(-32.9)"/>
    <path class="cls-1" d="M212.8,94.4a.9.9,0,0,1-1.1-.3h0a.8.8,0,0,1,.4-1.1h.1a.9.9,0,0,1,1.1.3h0A1,1,0,0,1,212.8,94.4Z" transform="translate(-32.9)"/>
    <path class="cls-1" d="M181.7,15.3a1,1,0,0,1-1.1-.5.9.9,0,0,1,.3-1.1h.1a.8.8,0,0,1,1.1.4h0a.9.9,0,0,1-.3,1.1Z" transform="translate(-32.9)"/>
    <path class="cls-1" d="M213.5,108.4a.8.8,0,0,1-1.1-.4h0a.9.9,0,0,1,.1-1.3.9.9,0,0,1,1.3.2.8.8,0,0,1,.2.5.8.8,0,0,1-.4,1.1Z" transform="translate(-32.9)"/>
    <path class="cls-1" d="M34.1,116.4a.9.9,0,0,1-1.1-.3h0a.9.9,0,0,1,.3-1.1h.1a1,1,0,0,1,1.2.4A1,1,0,0,1,34.1,116.4Z" transform="translate(-32.9)"/>
    <path class="cls-1" d="M251.1,24.8a1,1,0,0,1-1.2-.5,1,1,0,0,1,.5-1.1.8.8,0,0,1,1.1.4h0a.9.9,0,0,1-.3,1.1Z" transform="translate(-32.9)"/>
    <path class="cls-1" d="M222.9,3.3a.5.5,0,0,1-.5-.3c0-.1.1-.2.1-.3a.5.5,0,0,1,.5-.5h.1a.6.6,0,0,1,.5.6.5.5,0,0,1-.5.5Z" transform="translate(-32.9)"/>
    <path class="cls-1" d="M322.6,189.1l-24.7-1.8c-.2,0-.4.1-.4.3s.1.3.3.4l24.8,1.7a.3.3,0,0,0,0-.6Z" transform="translate(-32.9)"/>
    <path class="cls-2" d="M340.8,171l-43.1,16.4c-.1,0-.2.2-.2.4a.4.4,0,0,0,.5.1h0l43-16.3.2-.4C341.1,171,340.9,170.9,340.8,171Z" transform="translate(-32.9)"/>
    <path class="cls-3" d="M297.8,187.3l-40.6,1.5a.3.3,0,1,0,0,.6h0l40.7-1.4c.2,0,.3-.2.3-.4S298,187.3,297.8,187.3Z" transform="translate(-32.9)"/>
    <path class="cls-4" d="M297.9,188,373,174.7c.2-.1.3-.2.3-.4s-.2-.3-.4-.2l-75.1,13.2c-.2.1-.3.2-.3.4S297.7,188,297.9,188Z" transform="translate(-32.9)"/>
    <path class="cls-1" d="M322.8,189.6l18.3-18.1a.5.5,0,0,0,0-.5h-.5l-18.2,18.2a.3.3,0,0,0,0,.4.2.2,0,0,0,.2.2Z" transform="translate(-32.9)"/>
    <path class="cls-5" d="M322.6,189.1l-65.4-.3-.3.3a.3.3,0,0,0,.3.3l65.4.3a.3.3,0,0,0,0-.6Z" transform="translate(-32.9)"/>
    <path class="cls-6" d="M298.1,187.8l8.2-18.2c.1-.1,0-.3-.1-.4a.3.3,0,0,0-.4.2l-8.2,18.1c-.1.2,0,.4.1.4Z" transform="translate(-32.9)"/>
    <path class="cls-7" d="M340.8,171l-83.6,17.8c-.2.1-.3.2-.3.4s.2.3.4.2l83.6-17.8c.2-.1.3-.2.3-.4S341,170.9,340.8,171Z" transform="translate(-32.9)"/>
    <path class="cls-8" d="M298,187.9l52.3-46.8c.1-.1.2-.3,0-.4s-.3-.2-.4,0l-52.3,46.7a.5.5,0,0,0,0,.5Z" transform="translate(-32.9)"/>
    <path class="cls-9" d="M322.7,189.7l50.4-15,.2-.4c-.1-.2-.2-.3-.4-.2l-50.4,15a.5.5,0,0,0-.2.4C322.4,189.7,322.5,189.8,322.7,189.7Z" transform="translate(-32.9)"/>
    <path class="cls-1" d="M322.9,189.2l-16.6-19.9c-.1-.1-.3-.2-.4-.1h-.1a.3.3,0,0,0,0,.4l16.6,19.9c0,.1,0,.2.2.2s.2,0,.2-.1S323,189.4,322.9,189.2Z" transform="translate(-32.9)"/>
    <path class="cls-10" d="M298.1,187.6l-7.8-33.1-.4-.2a.5.5,0,0,0-.2.4l7.8,33c.1.2.3.3.4.2S298.2,187.7,298.1,187.6Z" transform="translate(-32.9)"/>
    <path class="cls-1" d="M340.8,171.6l32.2,3.1a.3.3,0,0,0,.3-.3c0-.2-.1-.3-.3-.4l-32.1-3c-.2-.1-.3.1-.3.2s0,.3.2.4Z" transform="translate(-32.9)"/>
    <path class="cls-11" d="M340.8,171.6l74.5,20.7c.2.1.3,0,.4-.2a.5.5,0,0,0-.2-.4L340.9,171c-.1-.1-.3,0-.3.2S340.6,171.5,340.8,171.6Z" transform="translate(-32.9)"/>
    <path class="cls-12" d="M257.2,188.8l-47.3-1.1a.3.3,0,1,0,0,.6h0l47.3,1.1a.3.3,0,0,0,0-.6Z" transform="translate(-32.9)"/>
    <path class="cls-13" d="M322.9,189.6,350.4,141c.1-.1,0-.3-.1-.4a.4.4,0,0,0-.5.1l-27.5,48.6a.5.5,0,0,0,.2.4C322.6,189.8,322.8,189.7,322.9,189.6Z" transform="translate(-32.9)"/>
    <path class="cls-14" d="M340.1,186.6l-42.3.7c-.2.1-.3.4-.2.5s.1.2.2.2l42.3-.8a.3.3,0,1,0,0-.6Z" transform="translate(-32.9)"/>
    <path class="cls-1" d="M340.9,171l-34.8-1.8c-.2,0-.4.1-.4.3a.3.3,0,0,0,.3.3l34.8,1.8c.2,0,.4-.1.4-.3A.3.3,0,0,0,340.9,171Z" transform="translate(-32.9)"/>
    <path class="cls-6" d="M305.9,169.2l-48.8,19.6-.2.4c.1.2.3.3.4.2l48.9-19.6c.1-.1.2-.3.1-.4S306.1,169.1,305.9,169.2Z" transform="translate(-32.9)"/>
    <path class="cls-15" d="M257,188.9l-44.3,53.7c-.1.1,0,.3.1.4h.4l44.3-53.7c.1,0,.2-.1.1-.2s-.1-.2-.2-.2Z" transform="translate(-32.9)"/>
    <path class="cls-1" d="M341.2,171.4l9.2-30.4c.1-.2,0-.4-.2-.4s-.3,0-.4.2l-9.2,30.4c-.1.1,0,.3.2.4Z" transform="translate(-32.9)"/>
    <path class="cls-16" d="M322.9,189.2l-32.7-34.8c-.1-.1-.3-.2-.4,0a.3.3,0,0,0,0,.4l32.6,34.8a.2.2,0,0,0,.2.2l.2-.2c.1,0,.2,0,.3-.2A.2.2,0,0,0,322.9,189.2Z" transform="translate(-32.9)"/>
    <path class="cls-1" d="M415.5,191.7l-42.4-17.6c-.2-.1-.3,0-.4.1a.3.3,0,0,0,.2.4l42.4,17.7c.1.1.3,0,.4-.2A.5.5,0,0,0,415.5,191.7Z" transform="translate(-32.9)"/>
    <path class="cls-17" d="M340.1,186.6l-17.5,2.5c-.2,0-.3.2-.3.4l.4.2,17.5-2.5c.1,0,.3-.1.2-.3a.3.3,0,0,0-.3-.3Z" transform="translate(-32.9)"/>
    <path class="cls-17" d="M306,169.8l67,4.9a.3.3,0,0,0,.3-.3c0-.2-.1-.3-.3-.4l-66.9-4.8c-.2,0-.4.1-.4.3A.3.3,0,0,0,306,169.8Z" transform="translate(-32.9)"/>
    <path class="cls-18" d="M363.3,181.3l-40.7,7.8c-.2,0-.3.2-.3.4s.2.3.4.2h0l40.7-7.7c.2-.1.3-.2.2-.4a.3.3,0,0,0-.3-.3Z" transform="translate(-32.9)"/>
    <path class="cls-19" d="M341,171l-50.9-16.7c-.1-.1-.3,0-.4.2a.5.5,0,0,0,.2.4l50.9,16.7.4-.2C341.2,171.2,341.1,171,341,171Z" transform="translate(-32.9)"/>
    <path class="cls-5" d="M257.5,189.3l32.7-34.5a.2.2,0,0,0,0-.4h-.4L257,188.9a.5.5,0,0,0,0,.5C257.2,189.5,257.3,189.5,257.5,189.3Z" transform="translate(-32.9)"/>
    <path class="cls-20" d="M209.6,188l3.1,54.8a.3.3,0,0,0,.3.3h0a.3.3,0,0,0,.3-.3h0L210.2,188a.3.3,0,0,0-.6,0Z" transform="translate(-32.9)"/>
    <path class="cls-1" d="M373.2,174.2l-22.8-33.5a.4.4,0,0,0-.5.1.4.4,0,0,0-.1.3l22.9,33.4c.1.2.3.2.5.1A.3.3,0,0,0,373.2,174.2Z" transform="translate(-32.9)"/>
    <path class="cls-21" d="M415.6,191.8l-65.3-51.2c-.1-.1-.3,0-.4.1a.3.3,0,0,0,0,.4l65.3,51.2c.1.1.3,0,.4-.1A.3.3,0,0,0,415.6,191.8Z" transform="translate(-32.9)"/>
    <path class="cls-22" d="M215.6,224.8l-55.3,35.3c-.1,0-.2.2-.1.4a.4.4,0,0,0,.5.1l55.2-35.3c.1-.1.2-.2.1-.4A.2.2,0,0,0,215.6,224.8Z" transform="translate(-32.9)"/>
    <path class="cls-20" d="M340.4,186.9l.8-15.6a.3.3,0,0,0-.3-.3c-.2-.1-.3.1-.4.2l-.7,15.7a.3.3,0,0,0,.6,0Z" transform="translate(-32.9)"/>
    <path class="cls-6" d="M363.5,181.4,341,171c-.2-.1-.3,0-.4.1a.4.4,0,0,0,.1.5l22.5,10.3c.2.1.3,0,.4-.1S363.6,181.4,363.5,181.4Z" transform="translate(-32.9)"/>
    <path class="cls-23" d="M306.2,169.8l44.1-28.6a.3.3,0,0,0,.3-.5c0-.2-.2-.3-.4-.3l-.3.2-44,28.6c-.2.1-.2.3-.1.5Z" transform="translate(-32.9)"/>
    <path class="cls-9" d="M218.9,279.6,160.6,260l-.4.2c0,.1,0,.4.2.4l58.3,19.6.4-.2A.5.5,0,0,0,218.9,279.6Z" transform="translate(-32.9)"/>
    <path class="cls-24" d="M289.9,154.9l83,19.8c.2,0,.3-.1.4-.3s-.1-.3-.2-.3l-83-19.8-.4.2C289.7,154.7,289.8,154.9,289.9,154.9Z" transform="translate(-32.9)"/>
    <path class="cls-4" d="M289.9,154.3l-80.1,33.4c-.2,0-.2.2-.2.4l.4.2,80.1-33.4c.2-.1.3-.3.2-.4S290.1,154.2,289.9,154.3Z" transform="translate(-32.9)"/>
    <path class="cls-12" d="M340.2,187.2l32.9-12.5c.2-.1.2-.3.2-.5s-.3-.2-.4-.1L340,186.6a.8.8,0,0,0-.2.4C339.9,187.2,340.1,187.3,340.2,187.2Z" transform="translate(-32.9)"/>
    <path class="cls-1" d="M306.2,169.3l-16-14.9h-.4a.3.3,0,0,0,0,.4l16,14.9h.5c.1,0,.2-.1.2-.3Z" transform="translate(-32.9)"/>
    <path class="cls-21" d="M340.1,187.2l75.3,5.1a.3.3,0,0,0,0-.6l-75.2-5.1c-.2,0-.4.1-.4.3A.3.3,0,0,0,340.1,187.2Z" transform="translate(-32.9)"/>
    <path class="cls-1" d="M363.5,181.9l9.7-7.3a.3.3,0,0,0,0-.4c0-.1,0-.2-.1-.2s-.3,0-.3.1h0l-9.7,7.3a.3.3,0,0,0,0,.4.4.4,0,0,0,.1.3c.2,0,.3-.1.3-.2Z" transform="translate(-32.9)"/>
    <path class="cls-5" d="M363.3,182l52,10.3.4-.2c0-.2-.1-.4-.3-.4l-52-10.4c-.2,0-.3.1-.4.3S363.1,181.9,363.3,182Z" transform="translate(-32.9)"/>
    <path class="cls-1" d="M340.3,186.6l-34.1-17.4c-.2-.1-.4,0-.4.2s-.2.1-.1.2.1.2.2.2h0L340,187.2c.1.1.3,0,.4-.1A.4.4,0,0,0,340.3,186.6Z" transform="translate(-32.9)"/>
    <path class="cls-25" d="M290.1,154.9l60.1-13.7c.2,0,.3-.2.2-.4h0c0-.2-.2-.3-.4-.2h0l-60.1,13.7c-.1,0-.2.2-.2.4Z" transform="translate(-32.9)"/>
    <path class="cls-22" d="M363.4,181.3l-57.3-12.1-.4.2c0,.2.1.4.3.4L363.3,182a.3.3,0,0,0,.3-.3C363.7,181.5,363.6,181.4,363.4,181.3Z" transform="translate(-32.9)"/>
    <path class="cls-4" d="M446.8,218.1l-73.7-44c-.1-.1-.3,0-.4.1s0,.3.1.4l73.7,44c.2.1.4.1.4-.1s.2-.1.2-.3Z" transform="translate(-32.9)"/>
    <path class="cls-26" d="M446.9,218.1l-31.3-26.3h-.5c-.1.1-.1.3.1.5l31.3,26.3c0,.1.1.2.3.1s.1-.1.1-.2A.3.3,0,0,0,446.9,218.1Z" transform="translate(-32.9)"/>
    <path class="cls-12" d="M340.4,187l10-46c0-.2-.1-.4-.2-.4s-.3,0-.4.2h0l-10,46.1a.3.3,0,0,0,.3.3C340.2,187.3,340.4,187.1,340.4,187Z" transform="translate(-32.9)"/>
    <path class="cls-27" d="M210,187.7l-32.1-10.4c-.2-.1-.4,0-.4.2s0,.3.2.4l32.1,10.4c.2,0,.4-.1.4-.3S210.2,187.7,210,187.7Z" transform="translate(-32.9)"/>
    <path class="cls-1" d="M363.6,181.6l-13.2-40.8c0-.2-.2-.3-.4-.2s-.2.2-.2.4L363,181.8l.4.2C363.6,181.9,363.7,181.7,363.6,181.6Z" transform="translate(-32.9)"/>
    <path class="cls-28" d="M437.6,214.4l-64.5-40.3c0-.1-.1-.2-.3-.1s-.1.1-.1.2,0,.3.1.4l64.4,40.3c.2.1.4.1.5-.1A.6.6,0,0,0,437.6,214.4Z" transform="translate(-32.9)"/>
    <path class="cls-26" d="M437.6,214.5l-22-22.7H415c-.1.2,0,.3.1.3l22.1,22.7h.4A.3.3,0,0,0,437.6,214.5Z" transform="translate(-32.9)"/>
    <path class="cls-29" d="M154.9,223l-43-30c0-.1-.1-.2-.3-.1s-.1.1-.1.2,0,.3.1.4l42.9,30c.1.1.3,0,.4-.1A.3.3,0,0,0,154.9,223Z" transform="translate(-32.9)"/>
    <path class="cls-30" d="M183.3,214.8,218.5,280c.1.2.3.3.4.2h.2c.1-.2,0-.3-.1-.3l-35.1-65.2a.4.4,0,0,0-.5-.2C183.3,214.5,183.2,214.7,183.3,214.8Z" transform="translate(-32.9)"/>
    <path class="cls-2" d="M340.3,186.7l-50.1-32.4c-.2-.1-.4,0-.4.1a.5.5,0,0,0,0,.5L340,187.2c.1.1.3,0,.4-.1S340.4,186.8,340.3,186.7Z" transform="translate(-32.9)"/>
    <path class="cls-31" d="M177.5,177.5l-23.1,45.6c-.1.1,0,.3.1.4a.4.4,0,0,0,.5-.1l23.1-45.7a.5.5,0,0,0-.2-.4C177.7,177.3,177.6,177.3,177.5,177.5Z" transform="translate(-32.9)"/>
    <path class="cls-32" d="M363.4,181.4l-73.3-27.1c-.1-.1-.3,0-.4.2s0,.3.2.4l73.3,27c.2.1.4,0,.4-.1S363.6,181.4,363.4,181.4Z" transform="translate(-32.9)"/>
    <path class="cls-15" d="M306.3,169.4l-9.2-42.3-.4-.2c-.2.1-.3.2-.2.4l9.2,42.3.4.2C306.3,169.7,306.4,169.6,306.3,169.4Z" transform="translate(-32.9)"/>
    <path class="cls-1" d="M363.3,181.3l-23.2,5.3c-.2.1-.3.2-.3.4s.2.3.4.2l23.2-5.2c.2-.1.3-.3.2-.4a.3.3,0,0,0-.3-.3Z" transform="translate(-32.9)"/>
    <path class="cls-15" d="M296.7,127.5,350,141.2l.4-.2c0-.1-.1-.4-.2-.4l-53.3-13.7-.4.2C296.5,127.2,296.5,127.5,296.7,127.5Z" transform="translate(-32.9)"/>
    <path class="cls-10" d="M363.2,181.9l83.3,36.7a.4.4,0,0,0,.5-.1c0-.2,0-.4-.2-.4l-83.3-36.7a.4.4,0,0,0-.5.1C363,181.7,363,181.9,363.2,181.9Z" transform="translate(-32.9)"/>
    <path class="cls-33" d="M340,187.2,437.3,215l.4-.2c0-.2-.1-.4-.2-.4h0l-97.3-27.8-.4.2C339.8,187,339.9,187.2,340,187.2Z" transform="translate(-32.9)"/>
    <path class="cls-1" d="M290.3,154.7l6.8-27.4c0-.2-.1-.3-.3-.4s-.3.1-.3.2l-6.8,27.4c0,.2.1.4.3.4Z" transform="translate(-32.9)"/>
    <path class="cls-16" d="M363.2,181.9,437.3,215l.4-.2c0-.2,0-.3-.2-.4l-74-33a.4.4,0,0,0-.5.1C363,181.7,363,181.9,363.2,181.9Z" transform="translate(-32.9)"/>
    <path class="cls-31" d="M177.7,177.3l-66,15.6c-.2.1-.3.2-.2.4s.2.3.3.2l66-15.6c.2,0,.3-.2.3-.4S177.9,177.2,177.7,177.3Z" transform="translate(-32.9)"/>
    <path class="cls-16" d="M340.4,186.7,297,127h-.4c-.1.1-.2.3-.1.4l43.4,59.7c.1.1.3.2.4.1A.4.4,0,0,0,340.4,186.7Z" transform="translate(-32.9)"/>
    <path class="cls-10" d="M363.5,181.4,297,127h-.5c-.1.1-.1.3.1.5l66.5,54.4h.5C363.7,181.7,363.7,181.5,363.5,181.4Z" transform="translate(-32.9)"/>
    <path class="cls-1" d="M446.8,218.1l-9.3-3.7c-.2-.1-.3,0-.4.2s0,.3.2.4l9.3,3.6c.1.1.3,0,.4-.1A.3.3,0,0,0,446.8,218.1Z" transform="translate(-32.9)"/>
    <path class="cls-8" d="M339.4,198l-49.2-43.6h-.4a.3.3,0,0,0,0,.4L339,198.5a.4.4,0,0,0,.5-.1c.1,0,.2-.1.2-.3Z" transform="translate(-32.9)"/>
    <path class="cls-34" d="M363.1,181.9l68.3,52.9c.2.1.4.1.5-.1s0-.3-.1-.4l-68.3-52.9c0-.1-.1-.2-.3-.1s-.1.1-.1.2A.3.3,0,0,0,363.1,181.9Z" transform="translate(-32.9)"/>
    <path class="cls-35" d="M339.5,198.2l.9-11.3c.1-.1-.1-.3-.3-.3a.3.3,0,0,0-.3.3l-.9,11.3a.3.3,0,0,0,.6,0Z" transform="translate(-32.9)"/>
    <path class="cls-36" d="M339.4,198.5l24.1-16.6c.1-.1.2-.3.1-.4a.4.4,0,0,0-.5-.1h0l-24,16.6h-.2c-.1.2,0,.3.1.3S339.3,198.6,339.4,198.5Z" transform="translate(-32.9)"/>
    <path class="cls-29" d="M431.8,234.8l15.1-16.2c.1-.2-.1-.4-.3-.5h-.2l-15,16.2a.5.5,0,0,0,0,.5Z" transform="translate(-32.9)"/>
    <path class="cls-1" d="M431.9,234.6l5.8-19.8c0-.2-.1-.4-.2-.4s-.4,0-.4.2l-5.8,19.9a.8.8,0,0,0,.2.4C431.7,234.9,431.9,234.8,431.9,234.6Z" transform="translate(-32.9)"/>
    <path class="cls-37" d="M339.5,198.1,297,127h-.4a.4.4,0,0,0-.1.5l42.5,71c.1.1.2.2.4.1A.3.3,0,0,0,339.5,198.1Z" transform="translate(-32.9)"/>
    <path class="cls-38" d="M112,193,73.6,155h-.4c-.2.2-.2.4,0,.5l38.3,37.9c.2.2.4.2.5,0A.3.3,0,0,0,112,193Z" transform="translate(-32.9)"/>
    <path class="cls-10" d="M177.9,177.3l-30.1-14.6c-.2,0-.4,0-.5.2a.5.5,0,0,0,.2.4l30.1,14.6a.4.4,0,0,0,.5-.2A.5.5,0,0,0,177.9,177.3Z" transform="translate(-32.9)"/>
    <path class="cls-28" d="M324.4,74.2,314.3,46.5c-.1-.1-.2-.2-.3-.1s-.1.1-.1.2h0l10.2,27.7a.2.2,0,0,0,.2.2h0C324.4,74.4,324.5,74.3,324.4,74.2Z" transform="translate(-32.9)"/>
    <path class="cls-8" d="M297.1,93.1l17.2-46.5a.2.2,0,0,0-.2-.2h0c-.1-.1-.2,0-.2.1L296.8,92.9c-.1.1,0,.2.1.3Z" transform="translate(-32.9)"/>
    <path class="cls-39" d="M339.1,198.5l92.4,36.3c.2.1.3,0,.4-.1a.3.3,0,0,0-.2-.4l-92.4-36.4-.4.2A.5.5,0,0,0,339.1,198.5Z" transform="translate(-32.9)"/>
    <path class="cls-40" d="M297,127l-22.1-18.9c-.2-.1-.4-.1-.5.1s0,.3.1.4l22.1,18.8c.1.2.3.1.4,0A.3.3,0,0,0,297,127Z" transform="translate(-32.9)"/>
    <path class="cls-22" d="M147.7,162.7l-74.3-7.8a.3.3,0,0,0-.3.3h0c-.1.2.1.3.2.4l74.3,7.7a.3.3,0,0,0,.3-.3h0C148,162.9,147.8,162.7,147.7,162.7Z" transform="translate(-32.9)"/>
    <path class="cls-19" d="M284,82l30.2-35.3a.2.2,0,0,0,0-.3h0c-.1-.1-.2,0-.3,0L283.8,81.7a.2.2,0,0,0,0,.3h.2Z" transform="translate(-32.9)"/>
    <path class="cls-18" d="M265.6,64.7l48.5-18c.1,0,.2-.1.1-.2s-.1-.2-.2-.1l-48.5,18c-.1,0-.2.1-.1.2Z" transform="translate(-32.9)"/>
    <path class="cls-16" d="M126.4,146.5l-53.1,8.4c-.1.1-.3.2-.2.4a.3.3,0,0,0,.3.3h0l53.1-8.5c.2,0,.3-.2.3-.4s-.2-.3-.4-.2Z" transform="translate(-32.9)"/>
    <path class="cls-2" d="M147.9,163.1l11.4-44.3a.3.3,0,0,0-.3-.3h0c-.1-.1-.3,0-.3.2l-11.4,44.2c0,.2.1.4.3.4Z" transform="translate(-32.9)"/>
    <path class="cls-1" d="M147.8,162.8l-21.1-16.3c-.2-.1-.4-.1-.5.1s-.2.1-.1.3h.2l21.1,16.3a.4.4,0,0,0,.5-.1C147.9,163,147.9,162.9,147.8,162.8Z" transform="translate(-32.9)"/>
    <path class="cls-30" d="M273,60l41.1-13.3a.2.2,0,0,0,.2-.2h0c-.1-.1-.2-.2-.3-.1L272.9,59.7c-.1,0-.2.1-.1.2S272.9,60.1,273,60Z" transform="translate(-32.9)"/>
    <path class="cls-1" d="M274.9,108.1,243.8,78.8h-.5a.5.5,0,0,0,0,.5l31.2,29.3a.3.3,0,0,0,.4,0A.5.5,0,0,0,274.9,108.1Z" transform="translate(-32.9)"/>
    <path class="cls-14" d="M274.6,108,158.9,118.4c-.1.1-.3.2-.2.4a.3.3,0,0,0,.3.3h0l115.7-10.4c.2-.1.3-.2.3-.4S274.8,108,274.6,108Z" transform="translate(-32.9)"/>
    <path class="cls-37" d="M73.6,155,34,115.4h-.5a.5.5,0,0,0,0,.5l39.7,39.6h.4A.5.5,0,0,0,73.6,155Z" transform="translate(-32.9)"/>
    <path class="cls-34" d="M314.1,46.4,269.8,31.9c-.1-.1-.2,0-.2.1s0,.2.1.2L314,46.7c.1.1.2,0,.3-.1a.2.2,0,0,0-.2-.2Z" transform="translate(-32.9)"/>
    <path class="cls-1" d="M275,108.2,256.4,71c0-.1,0-.2-.1-.2s-.3,0-.3.1-.2.2-.2.4l18.6,37.2c.1.1.3.2.4.1A.5.5,0,0,0,275,108.2Z" transform="translate(-32.9)"/>
    <path class="cls-41" d="M159.1,119l84.6-39.7c.1-.1.2-.3.1-.4l-.4-.2-84.6,39.8c-.1,0-.2.2-.1.4S158.9,119.1,159.1,119Z" transform="translate(-32.9)"/>
    <path class="cls-42" d="M274.7,108,212.6,93.3c-.2,0-.4.1-.4.3s.1.3.2.3l62.2,14.8c.2,0,.3-.1.4-.3S274.9,108.1,274.7,108Z" transform="translate(-32.9)"/>
    <path class="cls-1" d="M126.7,147l32.5-28a.3.3,0,0,0,0-.4c0-.1,0-.2-.1-.2s-.3,0-.3.1l-32.5,28c-.2.1-.2.3-.1.5Z" transform="translate(-32.9)"/>
    <path class="cls-1" d="M256,70.9l-12.6,7.9c-.2.1-.2.2-.1.4a.2.2,0,0,0,.4.1l12.6-7.9c.1-.1.2-.3.1-.4s0-.2-.2-.2S256,70.8,256,70.9Z" transform="translate(-32.9)"/>
    <path class="cls-17" d="M274.7,108l-61.5-.7a.3.3,0,0,0,0,.6h0l61.5.8c.2-.1.3-.4.2-.5S274.8,108,274.7,108Z" transform="translate(-32.9)"/>
    <path class="cls-37" d="M275,108.3,251,23.9c0-.2-.2-.3-.4-.2s-.2.2-.2.4l24,84.3c0,.2.2.3.4.2S275,108.4,275,108.3Z" transform="translate(-32.9)"/>
    <path class="cls-7" d="M159.1,119l97.2-47.6c.1-.1.2-.3.1-.4a.5.5,0,0,0-.4-.2l-97.2,47.7c-.1.1-.2.2-.1.4s0,.2.1.2S159.1,119.1,159.1,119Z" transform="translate(-32.9)"/>
    <path class="cls-1" d="M212.6,93.9l31.1-14.6c.1-.1.2-.3.1-.4l-.4-.2-31,14.7c-.2,0-.3.2-.2.4A.2.2,0,0,0,212.6,93.9Z" transform="translate(-32.9)"/>
    <path class="cls-15" d="M243.8,78.8,181.6,14.3a.5.5,0,0,0-.5,0,.3.3,0,0,0,0,.4l62.2,64.5c.1.1.3.2.4.1h.1A.3.3,0,0,0,243.8,78.8Z" transform="translate(-32.9)"/>
    <path class="cls-1" d="M213.4,107.8l30.4-28.5a.5.5,0,0,0,0-.5h-.5L213,107.4a.3.3,0,0,0,0,.4.2.2,0,0,0,.4,0Z" transform="translate(-32.9)"/>
    <path class="cls-43" d="M212.4,93.4l-53.6,25.1c-.1,0-.2.2-.1.4s.2.2.4.1l53.5-25.1c.2-.1.2-.2.2-.4s0-.2-.2-.2S212.4,93.3,212.4,93.4Z" transform="translate(-32.9)"/>
    <path class="cls-10" d="M159.3,118.8,181.7,14.6c0-.2-.1-.4-.3-.4s-.3,0-.3.2L158.7,118.7c-.1.2,0,.3.2.4S159.2,119,159.3,118.8Z" transform="translate(-32.9)"/>
    <path class="cls-29" d="M243.9,79.1,251,24c.1-.1-.1-.3-.2-.3s-.3,0-.4.2h0L243.2,79a.3.3,0,0,0,.3.3c.2.1.3-.1.4-.2Z" transform="translate(-32.9)"/>
    <path class="cls-37" d="M126.6,147l86.1-53.1c.1-.1.2-.3.1-.4a.4.4,0,0,0-.5-.1l-86,53.1c-.1.1-.2.3-.1.4s0,.2.1.2S126.6,147.1,126.6,147Z" transform="translate(-32.9)"/>
    <path class="cls-27" d="M213.2,107.3l-54.3,11.2c-.2,0-.3.2-.2.3a.3.3,0,0,0,.3.3h0l54.3-11.2c.2,0,.3-.2.2-.4S213.3,107.3,213.2,107.3Z" transform="translate(-32.9)"/>
    <path class="cls-14" d="M159,118.4,33.8,115.3a.3.3,0,0,0-.3.3h0c0,.2.1.4.3.4L159,119.1l.3-.3C159.3,118.6,159.1,118.5,159,118.4Z" transform="translate(-32.9)"/>
    <path class="cls-30" d="M213.1,107.3l-86.8,39.2c-.1.1-.2.2-.1.4s.2.2.4.2l86.7-39.2c.2-.1.3-.3.2-.4A.5.5,0,0,0,213.1,107.3Z" transform="translate(-32.9)"/>
    <path class="cls-13" d="M126.6,146.5,33.9,115.3c-.2,0-.4.1-.4.3s0,.3.2.3l92.7,31.2.3-.2C126.8,146.7,126.7,146.5,126.6,146.5Z" transform="translate(-32.9)"/>
    <path class="cls-1" d="M212.6,93.9l43.7-22.5c.1-.1.2-.3.1-.4a.5.5,0,0,0-.4-.2L212.4,93.4c-.2,0-.3.2-.2.4A.2.2,0,0,0,212.6,93.9Z" transform="translate(-32.9)"/>
    <path class="cls-15" d="M256.3,70.9,181.6,14.2a.4.4,0,0,0-.5.1c-.1.1,0,.3.1.4l74.7,56.7a.4.4,0,0,0,.5-.1C256.5,71.2,256.4,71,256.3,70.9Z" transform="translate(-32.9)"/>
    <path class="cls-1" d="M213.4,107.9l42.9-36.5c.2-.2.2-.4,0-.5h-.4L213,107.4a.3.3,0,0,0,0,.4C213.1,107.9,213.3,108,213.4,107.9Z" transform="translate(-32.9)"/>
    <path class="cls-31" d="M212.8,93.5,181.7,14.4c-.1-.2-.3-.3-.4-.2s-.3.2-.2.4l31.1,79.2c.1.1.2.2.4.1S212.8,93.7,212.8,93.5Z" transform="translate(-32.9)"/>
    <path class="cls-1" d="M256.4,71.1,251,23.9c0-.1-.1-.2-.3-.2a.3.3,0,0,0-.3.3l5.4,47.2c0,.2.2.3.4.2h0C256.3,71.4,256.5,71.3,256.4,71.1Z" transform="translate(-32.9)"/>
    <path class="cls-1" d="M213.5,107.6l-.7-14a.3.3,0,0,0-.3-.3h0c-.2,0-.3.2-.3.4l.7,13.9a.3.3,0,0,0,.3.3h0a.3.3,0,0,0,.3-.3Z" transform="translate(-32.9)"/>
    <path class="cls-16" d="M213.5,107.5,181.7,14.4c-.1-.2-.3-.3-.4-.2s-.3.2-.2.4l31.8,93.1c.1.2.3.3.4.2S213.6,107.7,213.5,107.5Z" transform="translate(-32.9)"/>
    <path class="cls-10" d="M221.2,57.5l2-54.8a.2.2,0,0,0-.4,0l-2,54.8a.2.2,0,0,0,.2.2Z" transform="translate(-32.9)"/>
    <path class="cls-25" d="M212.8,93.8,251,24.1c.1-.1,0-.3-.1-.4s-.4,0-.4.1L212.2,93.5c-.1.1,0,.3.2.4S212.7,93.9,212.8,93.8Z" transform="translate(-32.9)"/>
    <path class="cls-27" d="M243.7,28.7,207.7.1h-.3c-.1.1,0,.2,0,.3l36,28.6h.3C243.8,28.9,243.7,28.8,243.7,28.7Z" transform="translate(-32.9)"/>
    <path class="cls-19" d="M213.5,107.7,251,24.1c.1-.1,0-.3-.1-.4a.4.4,0,0,0-.5.2l-37.5,83.6a.5.5,0,0,0,.2.4C213.3,108,213.4,107.9,213.5,107.7Z" transform="translate(-32.9)"/>
    <path class="cls-36" d="M231,57.2,223.2,2.7a.2.2,0,0,0-.2-.2l-.2.3,7.8,54.5c0,.1.1.2.2.1Z" transform="translate(-32.9)"/>
    <path class="cls-36" d="M198.8,55.4,223.2,2.8c.1-.1,0-.2-.1-.2s-.2-.1-.3.1h0L198.4,55.2c0,.1,0,.3.1.3S198.8,55.5,198.8,55.4Z" transform="translate(-32.9)"/>
    <path class="cls-1" d="M223.1,2.5,207.6,0l-.2.2a.4.4,0,0,0,.1.3L223,2.9c.1,0,.2,0,.2-.2Z" transform="translate(-32.9)"/>
    <path class="cls-11" d="M194.5,63.5,223.2,2.8c0-.1,0-.2-.1-.2h-.3L194.2,63.4c-.1.1,0,.2.1.2S194.5,63.6,194.5,63.5Z" transform="translate(-32.9)"/>
    <path class="cls-1" d="M243.7,28.7,223.2,2.6a.2.2,0,0,0-.3,0,.2.2,0,0,0,0,.3L243.4,29h.3C243.7,28.9,243.8,28.8,243.7,28.7Z" transform="translate(-32.9)"/>
  </g>
</svg>
