<svg id="cube" xmlns="http://www.w3.org/2000/svg" viewBox="0 0 308 314.2">
  <defs>
    <style>
      .cls-1 {
        fill: #fff;
      }
    </style>
  </defs>
  <title>homeillustration</title>
  <g id="cube-2" data-name="cube">
    <path class="cls-1" d="M75,199.6a1.1,1.1,0,0,1-.9-.5,1,1,0,0,1,.4-1.4l79-45.5a1.1,1.1,0,0,1,1.4.3,1.1,1.1,0,0,1-.4,1.4l-79,45.6Z"/>
    <path class="cls-1" d="M154,306h-.5l-131.7-76a1.1,1.1,0,0,1-.5-.9V77a1.1,1.1,0,0,1,.5-.9L153.5.1h1l13,7.5a1.1,1.1,0,0,1,.3,1.4,1,1,0,0,1-1.3.4L154,2.2,23.3,77.6V228.5l131.2,75.7a1,1,0,0,1,.4,1.3A1,1,0,0,1,154,306Z"/>
    <path class="cls-1" d="M285.6,78h-.5L193,24.7a1,1,0,0,1-.4-1.4,1.1,1.1,0,0,1,1.4-.4l92.1,53.2a1,1,0,0,1,.4,1.4A1.1,1.1,0,0,1,285.6,78Z"/>
    <path class="cls-1" d="M233,199.6a.9.9,0,0,1-1-1V108L154,63,75.5,108.3a1,1,0,0,1-1.4-.4.9.9,0,0,1,.4-1.3l79-45.7a1.7,1.7,0,0,1,1,0l79,45.6a1.1,1.1,0,0,1,.5.9v91.2A1,1,0,0,1,233,199.6Z"/>
    <path class="cls-1" d="M233,260.4a.9.9,0,0,1-.9-.5.9.9,0,0,1,.4-1.3l52.7-30.4a.9.9,0,0,1,1.3.3,1,1,0,0,1-.3,1.4l-52.7,30.4Z"/>
    <path class="cls-1" d="M154,245.2h-.5l-26.3-15.2a1,1,0,0,1-.4-1.4,1.1,1.1,0,0,1,1.4-.4L154,243l52.2-30.1a1,1,0,0,1,1.3.4,1.1,1.1,0,0,1-.3,1.4l-52.7,30.4Z"/>
    <path class="cls-1" d="M101.3,123.6a1,1,0,0,1-1-1V92.8L74.5,77.9A1.1,1.1,0,0,1,74,77a1.2,1.2,0,0,1,.5-.9l52.7-30.4a.9.9,0,0,1,1.3.4,1.1,1.1,0,0,1-.3,1.4L77,77l24.8,14.3a1.2,1.2,0,0,1,.5.9v30.4A.9.9,0,0,1,101.3,123.6Z"/>
    <path class="cls-1" d="M259.3,214.8h-.5l-26.5-15.3a1.1,1.1,0,0,1-.3-1.4,1,1,0,0,1,1.3-.3l25,14.4V92.8L153.5,32.3a1.1,1.1,0,0,1-.4-1.4,1,1,0,0,1,1.4-.4L259.8,91.3a1.1,1.1,0,0,1,.5.9V213.8a1.1,1.1,0,0,1-.5.9Z"/>
    <path class="cls-1" d="M220,192.1l-.5-.2L179.7,169a.9.9,0,0,1-.3-1.3.9.9,0,0,1,1.3-.4l39.8,22.9a1.1,1.1,0,0,1,.3,1.4A1,1,0,0,1,220,192.1Z"/>
    <path class="cls-1" d="M75,108.4h-.5L21.8,77.9a1,1,0,0,1-.3-1.4,1,1,0,0,1,1.3-.4l52.7,30.5a1,1,0,0,1,.4,1.3A1.2,1.2,0,0,1,75,108.4Z"/>
    <path class="cls-1" d="M259.3,214.8a1,1,0,0,1-1-1V92.2a1.1,1.1,0,0,1,.5-.9l26.3-15.2a1.1,1.1,0,0,1,1.4.4,1,1,0,0,1-.4,1.4L260.3,92.8v121A.9.9,0,0,1,259.3,214.8Z"/>
    <g>
      <polygon class="cls-1" points="154 304.5 154 305.1 154.4 304.8 154 304.5"/>
      <polygon class="cls-1" points="192 283.1 165.7 267.9 164.9 268.3 191.3 283.5 192 283.1"/>
      <polygon class="cls-1" points="217.1 268.6 190.7 253.4 190 253.8 216.3 269 217.1 268.6"/>
      <polygon class="cls-1" points="242.2 254.1 215.8 238.9 215.1 239.4 241.4 254.6 242.2 254.1"/>
      <polygon class="cls-1" points="267.2 239.7 240.9 224.5 240.2 224.9 266.5 240.1 267.2 239.7"/>
      <polygon class="cls-1" points="285.6 221.3 259.3 206.1 259.3 207 285.6 222.2 285.6 221.3"/>
      <polygon class="cls-1" points="285.6 192.4 264.7 180.3 264 180.7 285.6 193.3 285.6 192.4"/>
      <polygon class="cls-1" points="167 297.6 154 290.1 154 290.9 166.2 298 167 297.6"/>
      <polygon class="cls-1" points="179.5 290.3 154 275.6 154 276.5 178.7 290.8 179.5 290.3"/>
      <polygon class="cls-1" points="204.6 275.8 178.2 260.6 177.5 261.1 203.8 276.3 204.6 275.8"/>
      <polygon class="cls-1" points="229.6 261.4 203.3 246.2 202.5 246.6 228.9 261.8 229.6 261.4"/>
      <polygon class="cls-1" points="254.7 246.9 228.4 231.7 227.6 232.1 254 247.3 254.7 246.9"/>
      <polygon class="cls-1" points="279.8 232.4 253.5 217.2 252.7 217.7 279 232.9 279.8 232.4"/>
      <polygon class="cls-1" points="285.6 206.9 259.3 191.7 259.3 192.5 285.6 207.7 285.6 206.9"/>
      <polygon class="cls-1" points="285.6 177.9 277.3 173.1 276.5 173.5 285.6 178.8 285.6 177.9"/>
      <polygon class="cls-1" points="185.8 286.7 159.4 271.5 158.6 271.9 185 287.1 185.8 286.7"/>
      <polygon class="cls-1" points="210.8 272.2 184.5 257 183.7 257.4 210.1 272.7 210.8 272.2"/>
      <polygon class="cls-1" points="235.9 257.8 209.6 242.5 208.8 243 235.2 258.2 235.9 257.8"/>
      <polygon class="cls-1" points="261 243.3 234.6 228.1 233.9 228.5 260.2 243.7 261 243.3"/>
      <polygon class="cls-1" points="285.6 229 285.6 228.6 259.3 213.4 259.3 213.8 259 214 285.3 229.2 285.6 229"/>
      <polygon class="cls-1" points="285.6 199.6 259.3 184.4 259.3 185.3 285.6 200.5 285.6 199.6"/>
      <polygon class="cls-1" points="285.6 170.7 283.5 169.4 282.8 169.9 285.6 171.5 285.6 170.7"/>
      <polygon class="cls-1" points="160.7 301.2 154 297.3 154 298.2 159.9 301.6 160.7 301.2"/>
      <polygon class="cls-1" points="173.2 293.9 154 282.8 154 283.7 172.5 294.4 173.2 293.9"/>
      <polygon class="cls-1" points="198.3 279.5 171.9 264.2 171.2 264.7 197.5 279.9 198.3 279.5"/>
      <polygon class="cls-1" points="223.4 265 197 249.8 196.3 250.2 222.6 265.4 223.4 265"/>
      <polygon class="cls-1" points="248.4 250.5 222.1 235.3 221.4 235.7 247.7 250.9 248.4 250.5"/>
      <polygon class="cls-1" points="273.5 236 247.2 220.8 246.4 221.3 272.8 236.5 273.5 236"/>
      <polygon class="cls-1" points="285.6 214.1 259.3 198.9 259.3 199.8 285.6 215 285.6 214.1"/>
      <polygon class="cls-1" points="285.6 185.1 271 176.7 270.2 177.1 285.6 186 285.6 185.1"/>
    </g>
    <g>
      <polygon class="cls-1" points="75 186 86 192.3 86.7 191.8 75 185.1 75 186"/>
      <polygon class="cls-1" points="75 157 111.1 177.8 111.8 177.4 75 156.1 75 157"/>
      <polygon class="cls-1" points="75 128 136.1 163.3 136.9 162.9 75 127.2 75 128"/>
      <polygon class="cls-1" points="82.2 103.3 154 144.7 154 143.8 83 102.8 82.2 103.3"/>
      <polygon class="cls-1" points="107.3 88.8 154 115.7 154 114.9 108 88.3 107.3 88.8"/>
      <polygon class="cls-1" points="132.3 74.3 154 86.8 154 85.9 133.1 73.9 132.3 74.3"/>
      <polygon class="cls-1" points="75 171.5 98.5 185 99.3 184.6 75 170.6 75 171.5"/>
      <polygon class="cls-1" points="75 142.5 123.6 170.6 124.3 170.1 75 141.7 75 142.5"/>
      <polygon class="cls-1" points="75 113.6 148.7 156.1 149.4 155.7 75 112.7 75 113.6"/>
      <polygon class="cls-1" points="94.7 96 154 130.2 154 129.4 95.5 95.6 94.7 96"/>
      <polygon class="cls-1" points="119.8 81.5 154 101.3 154 100.4 120.6 81.1 119.8 81.5"/>
      <polygon class="cls-1" points="144.9 67.1 154 72.3 154 71.5 145.6 66.6 144.9 67.1"/>
      <polygon class="cls-1" points="75 193.2 79.7 195.9 80.5 195.5 75 192.3 75 193.2"/>
      <polygon class="cls-1" points="75 164.2 104.8 181.4 105.5 181 75 163.4 75 164.2"/>
      <polygon class="cls-1" points="75 135.3 129.9 167 130.6 166.5 75 134.4 75 135.3"/>
      <polygon class="cls-1" points="75.9 106.9 154 151.9 154 151.1 76.7 106.4 75.9 106.9"/>
      <polygon class="cls-1" points="101 92.4 154 123 154 122.1 101.8 92 101 92.4"/>
      <polygon class="cls-1" points="126.1 77.9 154 94 154 93.2 126.8 77.5 126.1 77.9"/>
      <polygon class="cls-1" points="151.1 63.4 154 65.1 154 64.2 151.9 63 151.1 63.4"/>
      <polygon class="cls-1" points="75 178.7 92.2 188.7 93 188.2 75 177.8 75 178.7"/>
      <polygon class="cls-1" points="75 149.8 117.3 174.2 118.1 173.8 75 148.9 75 149.8"/>
      <polygon class="cls-1" points="75 120.8 142.4 159.7 143.2 159.3 75 119.9 75 120.8"/>
      <polygon class="cls-1" points="88.5 99.6 154 137.5 154 136.6 89.2 99.2 88.5 99.6"/>
      <polygon class="cls-1" points="113.5 85.2 154 108.5 154 107.6 114.3 84.7 113.5 85.2"/>
      <polygon class="cls-1" points="138.6 70.7 154 79.6 154 78.7 139.4 70.2 138.6 70.7"/>
    </g>
    <g>
      <polygon class="cls-1" points="92.8 70.5 102.5 76.1 103.3 75.7 92.8 69.6 92.8 70.5"/>
      <polygon class="cls-1" points="101.2 46.4 127.6 61.6 128.3 61.2 102 46 101.2 46.4"/>
      <polygon class="cls-1" points="126.3 31.9 145.3 42.9 145.3 42 127.1 31.5 126.3 31.9"/>
      <polygon class="cls-1" points="92.8 56 115.1 68.9 115.8 68.4 92.8 55.1 92.8 56"/>
      <polygon class="cls-1" points="113.8 39.2 140.1 54.4 140.9 54 114.5 38.8 113.8 39.2"/>
      <polygon class="cls-1" points="138.8 24.7 145.3 28.4 145.3 27.6 139.6 24.3 138.8 24.7"/>
      <polygon class="cls-1" points="92.8 77.7 96.3 79.7 97 79.3 92.8 76.9 92.8 77.7"/>
      <polygon class="cls-1" points="95 50 121.3 65.3 122.1 64.8 95.7 49.6 95 50"/>
      <polygon class="cls-1" points="120 35.6 145.3 50.2 145.3 49.3 120.8 35.1 120 35.6"/>
      <polygon class="cls-1" points="145.3 21 145.1 21.1 145.3 21.2 145.3 21"/>
      <polygon class="cls-1" points="92.8 63.2 108.8 72.5 109.6 72.1 92.8 62.4 92.8 63.2"/>
      <polygon class="cls-1" points="107.5 42.8 133.9 58 134.6 57.6 108.3 42.4 107.5 42.8"/>
      <polygon class="cls-1" points="132.6 28.3 145.3 35.7 145.3 34.8 133.3 27.9 132.6 28.3"/>
    </g>
    <g>
      <polygon class="cls-1" points="154 244.1 153.6 244.3 154 244.6 154 244.1"/>
      <polygon class="cls-1" points="153.9 200.7 116 222.6 116.7 223 153.9 201.6 153.9 200.7"/>
      <polygon class="cls-1" points="143.6 177.7 101.1 202.2 101.1 203.1 144.3 178.2 143.6 177.7"/>
      <polygon class="cls-1" points="118.7 163.2 101.2 173.2 101.2 174.1 119.4 163.6 118.7 163.2"/>
      <polygon class="cls-1" points="154 229.6 141 237.1 141.8 237.5 154 230.5 154 229.6"/>
      <polygon class="cls-1" points="153.9 215.2 128.5 229.8 129.2 230.3 153.9 216 153.9 215.2"/>
      <polygon class="cls-1" points="153.8 186.3 103.4 215.4 104.2 215.8 153.9 187.1 153.8 186.3"/>
      <polygon class="cls-1" points="131.1 170.4 101.2 187.7 101.2 188.6 131.8 170.9 131.1 170.4"/>
      <polygon class="cls-1" points="106.2 155.9 101.3 158.7 101.3 159.6 107 156.3 106.2 155.9"/>
      <polygon class="cls-1" points="153.9 207.9 122.2 226.2 123 226.7 153.9 208.8 153.9 207.9"/>
      <polygon class="cls-1" points="149.8 181.4 101.1 209.5 101.1 210.4 150.5 181.8 149.8 181.4"/>
      <polygon class="cls-1" points="124.9 166.8 101.2 180.5 101.2 181.3 125.6 167.2 124.9 166.8"/>
      <polygon class="cls-1" points="154 236.8 147.3 240.7 148 241.1 154 237.7 154 236.8"/>
      <polygon class="cls-1" points="153.9 222.4 134.8 233.5 135.5 233.9 153.9 223.3 153.9 222.4"/>
      <polygon class="cls-1" points="153.9 193.5 109.7 219 110.4 219.4 153.9 194.3 153.9 193.5"/>
      <polygon class="cls-1" points="137.3 174.1 101.1 195 101.1 195.8 138.1 174.5 137.3 174.1"/>
      <polygon class="cls-1" points="112.4 159.5 101.3 165.9 101.3 166.8 113.2 159.9 112.4 159.5"/>
      <polygon class="cls-1" points="153.9 204.3 119.1 224.4 119.8 224.9 153.9 205.2 153.9 204.3"/>
      <polygon class="cls-1" points="146.7 179.6 101.1 205.9 101.1 206.7 147.4 180 146.7 179.6"/>
      <polygon class="cls-1" points="121.8 165 101.2 176.8 101.2 177.7 122.5 165.4 121.8 165"/>
      <polygon class="cls-1" points="154 233.2 144.2 238.9 144.9 239.3 154 234.1 154 233.2"/>
      <polygon class="cls-1" points="153.9 218.8 131.6 231.7 132.4 232.1 153.9 219.6 153.9 218.8"/>
      <polygon class="cls-1" points="153.9 189.9 106.6 217.2 107.3 217.6 153.9 190.7 153.9 189.9"/>
      <polygon class="cls-1" points="134.2 172.3 101.1 191.4 101.1 192.2 135 172.7 134.2 172.3"/>
      <polygon class="cls-1" points="109.3 157.7 101.3 162.3 101.3 163.2 110.1 158.1 109.3 157.7"/>
      <polygon class="cls-1" points="153.9 211.6 125.4 228 126.1 228.5 153.9 212.4 153.9 211.6"/>
      <polygon class="cls-1" points="152.9 183.2 101 213.1 101 214 153.6 183.6 152.9 183.2"/>
      <polygon class="cls-1" points="128 168.6 101.2 184.1 101.2 185 128.7 169.1 128 168.6"/>
      <polygon class="cls-1" points="103.1 154 101.3 155.1 101.3 155.9 103.8 154.5 103.1 154"/>
      <polygon class="cls-1" points="154 240.5 150.4 242.5 151.2 242.9 154 241.3 154 240.5"/>
      <polygon class="cls-1" points="154 226 137.9 235.3 138.7 235.7 154 226.9 154 226"/>
      <polygon class="cls-1" points="153.9 197.1 112.8 220.8 113.6 221.2 153.9 198 153.9 197.1"/>
      <polygon class="cls-1" points="140.4 175.9 101.1 198.6 101.1 199.5 141.2 176.3 140.4 175.9"/>
      <polygon class="cls-1" points="115.6 161.3 101.3 169.6 101.2 170.5 116.3 161.8 115.6 161.3"/>
    </g>
    <g>
      <polygon class="cls-1" points="219.9 175.6 219.5 175.9 219.9 176.1 219.9 175.6"/>
      <polygon class="cls-1" points="219.8 132.3 181.9 154.2 182.6 154.6 219.8 133.1 219.8 132.3"/>
      <polygon class="cls-1" points="209.5 109.3 167 133.8 167 134.7 210.2 109.7 209.5 109.3"/>
      <polygon class="cls-1" points="184.6 94.7 167.2 104.8 167.1 105.6 185.3 95.1 184.6 94.7"/>
      <polygon class="cls-1" points="219.9 161.2 206.9 168.6 207.7 169.1 219.9 162 219.9 161.2"/>
      <polygon class="cls-1" points="219.8 146.7 194.4 161.4 195.2 161.8 219.8 147.6 219.8 146.7"/>
      <polygon class="cls-1" points="219.8 117.8 169.3 146.9 170.1 147.4 219.8 118.7 219.8 117.8"/>
      <polygon class="cls-1" points="197 102 167.1 119.3 167.1 120.1 197.8 102.4 197 102"/>
      <polygon class="cls-1" points="172.1 87.4 167.2 90.2 167.2 91.1 172.9 87.8 172.1 87.4"/>
      <polygon class="cls-1" points="219.8 139.5 188.1 157.8 188.9 158.2 219.8 140.3 219.8 139.5"/>
      <polygon class="cls-1" points="215.7 112.9 167 141 167 141.9 216.4 113.4 215.7 112.9"/>
      <polygon class="cls-1" points="190.8 98.3 167.1 112 167.1 112.9 191.5 98.8 190.8 98.3"/>
      <polygon class="cls-1" points="219.9 168.4 213.2 172.3 214 172.7 219.9 169.3 219.9 168.4"/>
      <polygon class="cls-1" points="219.9 153.9 200.7 165 201.4 165.4 219.9 154.8 219.9 153.9"/>
      <polygon class="cls-1" points="219.8 125 175.6 150.5 176.4 151 219.8 125.9 219.8 125"/>
      <polygon class="cls-1" points="203.2 105.6 167.1 126.5 167 127.4 204 106.1 203.2 105.6"/>
      <polygon class="cls-1" points="178.4 91.1 167.2 97.5 167.2 98.4 179.1 91.5 178.4 91.1"/>
      <polygon class="cls-1" points="219.8 135.9 185 156 185.8 156.4 219.8 136.7 219.8 135.9"/>
      <polygon class="cls-1" points="212.6 111.1 167 137.4 167 138.3 213.3 111.5 212.6 111.1"/>
      <polygon class="cls-1" points="187.7 96.5 167.1 108.4 167.1 109.3 188.4 97 187.7 96.5"/>
      <polygon class="cls-1" points="219.9 164.8 210.1 170.4 210.8 170.9 219.9 165.6 219.9 164.8"/>
      <polygon class="cls-1" points="219.9 150.3 197.6 163.2 198.3 163.6 219.9 151.2 219.9 150.3"/>
      <polygon class="cls-1" points="219.8 121.4 172.5 148.7 173.2 149.2 219.8 122.3 219.8 121.4"/>
      <polygon class="cls-1" points="200.1 103.8 167.1 122.9 167.1 123.8 200.9 104.3 200.1 103.8"/>
      <polygon class="cls-1" points="175.2 89.2 167.2 93.9 167.2 94.7 176 89.7 175.2 89.2"/>
      <polygon class="cls-1" points="219.8 143.1 191.3 159.6 192 160 219.8 144 219.8 143.1"/>
      <polygon class="cls-1" points="218.8 114.7 167 144.7 167 145.5 219.6 115.2 218.8 114.7"/>
      <polygon class="cls-1" points="193.9 100.2 167.1 115.6 167.1 116.5 194.7 100.6 193.9 100.2"/>
      <polygon class="cls-1" points="169 85.6 167.2 86.6 167.2 87.5 169.8 86 169 85.6"/>
      <polygon class="cls-1" points="219.9 172 216.4 174.1 217.1 174.5 219.9 172.9 219.9 172"/>
      <polygon class="cls-1" points="219.9 157.6 203.8 166.8 204.6 167.3 219.9 158.4 219.9 157.6"/>
      <polygon class="cls-1" points="219.8 128.7 178.7 152.4 179.5 152.8 219.8 129.5 219.8 128.7"/>
      <polygon class="cls-1" points="206.4 107.5 167 130.2 167 131 207.1 107.9 206.4 107.5"/>
      <polygon class="cls-1" points="181.5 92.9 167.2 101.1 167.2 102 182.2 93.3 181.5 92.9"/>
    </g>
    <g>
      <polygon class="cls-1" points="259.3 213.5 259 213.7 259.3 213.8 259.3 213.5"/>
      <polygon class="cls-1" points="259.3 170.1 232.9 185.4 232.9 186.2 259.3 171 259.3 170.1"/>
      <polygon class="cls-1" points="259.3 141.2 232.6 156.6 232.6 157.4 259.3 142 259.3 141.2"/>
      <polygon class="cls-1" points="259.3 112.2 232.3 127.8 232.3 128.6 259.3 113.1 259.3 112.2"/>
      <polygon class="cls-1" points="251.4 87.8 224.8 103.1 225.6 103.6 252.1 88.3 251.4 87.8"/>
      <polygon class="cls-1" points="226.3 73.3 199.8 88.6 200.6 89.1 227.1 73.8 226.3 73.3"/>
      <polygon class="cls-1" points="201.3 58.8 174.8 74.1 175.5 74.6 202.1 59.3 201.3 58.8"/>
      <polygon class="cls-1" points="176.3 44.3 154 57.2 154 58.1 177 44.8 176.3 44.3"/>
      <polygon class="cls-1" points="259.3 199 246.5 206.4 247.2 206.9 259.3 199.9 259.3 199"/>
      <polygon class="cls-1" points="259.3 184.6 234 199.2 234.7 199.6 259.3 185.4 259.3 184.6"/>
      <polygon class="cls-1" points="259.3 155.6 232.7 171 232.7 171.8 259.3 156.5 259.3 155.6"/>
      <polygon class="cls-1" points="259.3 126.7 232.5 142.2 232.5 143 259.3 127.5 259.3 126.7"/>
      <polygon class="cls-1" points="259.3 97.7 232.2 113.4 232.2 114.2 259.3 98.6 259.3 97.7"/>
      <polygon class="cls-1" points="238.9 80.6 212.3 95.9 213.1 96.3 239.6 81 238.9 80.6"/>
      <polygon class="cls-1" points="213.8 66.1 187.3 81.4 188.1 81.8 214.6 66.5 213.8 66.1"/>
      <polygon class="cls-1" points="188.8 51.6 162.3 66.9 163 67.3 189.5 52 188.8 51.6"/>
      <polygon class="cls-1" points="163.8 37.1 154 42.7 154 43.6 164.5 37.5 163.8 37.1"/>
      <polygon class="cls-1" points="259.3 177.3 232.9 192.6 232.9 193.4 259.3 178.2 259.3 177.3"/>
      <polygon class="cls-1" points="259.3 148.4 232.7 163.8 232.7 164.6 259.3 149.3 259.3 148.4"/>
      <polygon class="cls-1" points="259.3 119.4 232.4 135 232.4 135.8 259.3 120.3 259.3 119.4"/>
      <polygon class="cls-1" points="257.6 91.5 231.1 106.8 231.8 107.2 258.4 91.9 257.6 91.5"/>
      <polygon class="cls-1" points="232.6 76.9 206.1 92.3 206.8 92.7 233.3 77.4 232.6 76.9"/>
      <polygon class="cls-1" points="207.6 62.4 181 77.8 181.8 78.2 208.3 62.9 207.6 62.4"/>
      <polygon class="cls-1" points="182.5 47.9 156 63.3 156.8 63.7 183.3 48.4 182.5 47.9"/>
      <polygon class="cls-1" points="157.5 33.4 154 35.5 154 36.4 158.3 33.9 157.5 33.4"/>
      <polygon class="cls-1" points="259.3 206.3 252.8 210.1 253.5 210.5 259.3 207.1 259.3 206.3"/>
      <polygon class="cls-1" points="259.3 191.8 240.2 202.8 241 203.3 259.3 192.7 259.3 191.8"/>
      <polygon class="cls-1" points="259.3 162.9 232.8 178.2 232.8 179 259.3 163.7 259.3 162.9"/>
      <polygon class="cls-1" points="259.3 133.9 232.5 149.4 232.5 150.2 259.3 134.8 259.3 133.9"/>
      <polygon class="cls-1" points="259.3 105 232.3 120.6 232.3 121.4 259.3 105.8 259.3 105"/>
      <polygon class="cls-1" points="245.1 84.2 218.6 99.5 219.3 100 245.9 84.6 245.1 84.2"/>
      <polygon class="cls-1" points="220.1 69.7 193.6 85 194.3 85.4 220.8 70.1 220.1 69.7"/>
      <polygon class="cls-1" points="195.1 55.2 168.5 70.5 169.3 70.9 195.8 55.6 195.1 55.2"/>
      <polygon class="cls-1" points="170 40.7 154 50 154 50.8 170.8 41.1 170 40.7"/>
      <polygon class="cls-1" points="259.3 173.7 232.9 189 232.9 189.8 259.3 174.6 259.3 173.7"/>
      <polygon class="cls-1" points="259.3 144.8 232.6 160.2 232.6 161 259.3 145.6 259.3 144.8"/>
      <polygon class="cls-1" points="259.3 115.8 232.4 131.4 232.4 132.2 259.3 116.7 259.3 115.8"/>
      <polygon class="cls-1" points="254.5 89.6 228 105 228.7 105.4 255.3 90.1 254.5 89.6"/>
      <polygon class="cls-1" points="229.5 75.1 202.9 90.5 203.7 90.9 230.2 75.6 229.5 75.1"/>
      <polygon class="cls-1" points="204.4 60.6 177.9 75.9 178.7 76.4 205.2 61.1 204.4 60.6"/>
      <polygon class="cls-1" points="179.4 46.1 154 60.8 154 61.7 180.2 46.6 179.4 46.1"/>
      <polygon class="cls-1" points="154.4 31.6 154 31.9 154 32.7 155.1 32.1 154.4 31.6"/>
      <polygon class="cls-1" points="259.3 202.7 249.6 208.3 250.4 208.7 259.3 203.5 259.3 202.7"/>
      <polygon class="cls-1" points="259.3 188.2 237.1 201 237.8 201.4 259.3 189.1 259.3 188.2"/>
      <polygon class="cls-1" points="259.3 159.3 232.8 174.6 232.8 175.4 259.3 160.1 259.3 159.3"/>
      <polygon class="cls-1" points="259.3 130.3 232.5 145.8 232.5 146.6 259.3 131.2 259.3 130.3"/>
      <polygon class="cls-1" points="259.3 101.4 232.2 117 232.2 117.8 259.3 102.2 259.3 101.4"/>
      <polygon class="cls-1" points="242 82.4 215.5 97.7 216.2 98.1 242.7 82.8 242 82.4"/>
      <polygon class="cls-1" points="217 67.9 190.4 83.2 191.2 83.6 217.7 68.3 217 67.9"/>
      <polygon class="cls-1" points="191.9 53.4 165.4 68.7 166.2 69.1 192.7 53.8 191.9 53.4"/>
      <polygon class="cls-1" points="166.9 38.9 154 46.4 154 47.2 167.7 39.3 166.9 38.9"/>
      <polygon class="cls-1" points="259.3 181 232.9 196.2 233 197 259.3 181.8 259.3 181"/>
      <polygon class="cls-1" points="259.3 152 232.7 167.4 232.7 168.2 259.3 152.9 259.3 152"/>
      <polygon class="cls-1" points="259.3 123.1 232.4 138.6 232.4 139.4 259.3 123.9 259.3 123.1"/>
      <polygon class="cls-1" points="259.3 94.1 232.2 109.8 232.2 110.6 259.3 95 259.3 94.1"/>
      <polygon class="cls-1" points="235.7 78.8 209.2 94.1 209.9 94.5 236.5 79.2 235.7 78.8"/>
      <polygon class="cls-1" points="210.7 64.3 184.2 79.6 184.9 80 211.5 64.7 210.7 64.3"/>
      <polygon class="cls-1" points="185.7 49.8 159.2 65.1 159.9 65.5 186.4 50.2 185.7 49.8"/>
      <polygon class="cls-1" points="160.7 35.3 154 39.1 154 40 161.4 35.7 160.7 35.3"/>
      <polygon class="cls-1" points="259.3 209.9 255.9 211.9 256.6 212.3 259.3 210.8 259.3 209.9"/>
      <polygon class="cls-1" points="259.3 195.4 243.4 204.6 244.1 205.1 259.3 196.3 259.3 195.4"/>
      <polygon class="cls-1" points="259.3 166.5 232.8 181.8 232.8 182.6 259.3 167.4 259.3 166.5"/>
      <polygon class="cls-1" points="259.3 137.5 232.6 153 232.6 153.8 259.3 138.4 259.3 137.5"/>
      <polygon class="cls-1" points="259.3 108.6 232.3 124.2 232.3 125 259.3 109.5 259.3 108.6"/>
      <polygon class="cls-1" points="248.2 86 221.7 101.3 222.5 101.8 249 86.5 248.2 86"/>
      <polygon class="cls-1" points="223.2 71.5 196.7 86.8 197.4 87.3 224 71.9 223.2 71.5"/>
      <polygon class="cls-1" points="198.2 57 171.7 72.3 172.4 72.8 198.9 57.4 198.2 57"/>
      <polygon class="cls-1" points="173.2 42.5 154 53.6 154 54.5 173.9 42.9 173.2 42.5"/>
    </g>
    <path class="cls-1" d="M154,245.6l-.5-.2-53-30.5a1.1,1.1,0,0,1-.5-.9l.3-61a1.1,1.1,0,0,1,.5-.9h1l52.5,30.8a.9.9,0,0,1,.5.9l.2,60.8a.9.9,0,0,1-.5.8Zm-52-32.2,51,29.4-.2-58.5-50.5-29.6Z"/>
    <path class="cls-1" d="M48.7,199.7h-.5L8.7,176.8a1.2,1.2,0,0,1-.5-.9l.2-45.6a.9.9,0,0,1,.5-.8.9.9,0,0,1,1,0l39.2,22.9a1.1,1.1,0,0,1,.5.9v45.4a1.1,1.1,0,0,1-.5.9ZM10.2,175.3,47.7,197V153.9L10.4,132.1Z"/>
    <g>
      <circle class="cls-1" cx="206.7" cy="213.8" r="3.2"/>
      <path class="cls-1" d="M206.7,220.6a6.8,6.8,0,1,1,0-13.6,6.8,6.8,0,1,1,0,13.6Zm0-12.6a5.8,5.8,0,1,0,5.8,5.8A5.8,5.8,0,0,0,206.7,208Z"/>
    </g>
    <g>
      <circle class="cls-1" cx="180.2" cy="168.2" r="2.2"/>
      <path class="cls-1" d="M180.2,173.1a4.9,4.9,0,1,1,4.9-4.9A4.9,4.9,0,0,1,180.2,173.1Zm0-8.8a3.9,3.9,0,0,0-3.9,3.9,4,4,0,0,0,3.9,3.9,3.9,3.9,0,0,0,3.9-3.9A3.8,3.8,0,0,0,180.2,164.3Z"/>
    </g>
    <g>
      <circle class="cls-1" cx="298.8" cy="145.4" r="4.4"/>
      <path class="cls-1" d="M298.8,154.6a9.2,9.2,0,1,1,9.2-9.2A9.2,9.2,0,0,1,298.8,154.6Zm0-17.3a8.1,8.1,0,0,0-8.1,8.1,8.2,8.2,0,0,0,8.1,8.2,8.2,8.2,0,0,0,8.2-8.2A8.2,8.2,0,0,0,298.8,137.3Z"/>
    </g>
    <g>
      <circle class="cls-1" cx="154" cy="305" r="4.4"/>
      <path class="cls-1" d="M154,314.2a9.2,9.2,0,1,1,9.1-9.2A9.2,9.2,0,0,1,154,314.2Zm0-17.3a8.2,8.2,0,0,0-8.2,8.1,8.2,8.2,0,0,0,8.2,8.2,8.2,8.2,0,0,0,8.1-8.2A8.1,8.1,0,0,0,154,296.9Z"/>
    </g>
    <g>
      <circle class="cls-1" cx="9.2" cy="130.3" r="4.4"/>
      <path class="cls-1" d="M9.2,139.5a9.2,9.2,0,1,1,9.1-9.2A9.2,9.2,0,0,1,9.2,139.5Zm0-17.3A8.2,8.2,0,0,0,1,130.3a8.2,8.2,0,0,0,8.2,8.2,8.2,8.2,0,0,0,8.1-8.2A8.1,8.1,0,0,0,9.2,122.2Z"/>
    </g>
    <path class="cls-1" d="M180.5,260.4H180a1.1,1.1,0,0,1-.5-.9l-.2-45.5a1.1,1.1,0,0,1,.5-.9l39.5-22.8a.9.9,0,0,1,1,0,.9.9,0,0,1,.5.8v45.5a1,1,0,0,1-.5.8l-39.2,23Zm.8-46,.2,43.3,37.2-21.8V192.8Z"/>
    <g>
      <path class="cls-1" d="M132.1,103.4h-.5a1.2,1.2,0,0,1-.5-.9V83.6a1.1,1.1,0,0,1,.5-.9l16.3-9.4a.9.9,0,0,1,1,0,1.1,1.1,0,0,1,.5.9V92.9a1.1,1.1,0,0,1-.5.9l-16.2,9.4Zm.9-19.2v16.4l14.2-8.3V75.9Z"/>
      <path class="cls-1" d="M132.1,130.6h-.5a1.1,1.1,0,0,1-.5-.9V110.8a1.1,1.1,0,0,1,.5-.9l16.3-9.4a.9.9,0,0,1,1,0,1.1,1.1,0,0,1,.5.9v18.7a1.1,1.1,0,0,1-.5.9l-16.2,9.5Zm.9-19.2v16.5l14.2-8.4V103.1Z"/>
      <path class="cls-1" d="M132.1,157.8h-.5a1.1,1.1,0,0,1-.5-.9V138a1.2,1.2,0,0,1,.5-.9l16.3-9.4a.9.9,0,0,1,1,0,1.1,1.1,0,0,1,.5.9v18.7a1.1,1.1,0,0,1-.5.9l-16.2,9.5Zm.9-19.2v16.5l14.2-8.3V130.3Z"/>
    </g>
    <circle class="cls-1" cx="180.2" cy="259.4" r="4.4"/>
    <g>
      <circle class="cls-1" cx="233" cy="77.4" r="3.2"/>
      <path class="cls-1" d="M233,84.1a6.8,6.8,0,1,1,6.8-6.7A6.8,6.8,0,0,1,233,84.1Zm0-12.5a5.8,5.8,0,1,0,5.8,5.8A5.8,5.8,0,0,0,233,71.6Z"/>
    </g>
    <circle class="cls-1" cx="285.6" cy="229" r="4.4"/>
    <path class="cls-1" d="M53.1,198.7a4.4,4.4,0,1,1-8.8,0,4.4,4.4,0,0,1,8.8,0Z"/>
    <path class="cls-1" d="M259.3,138.8h-.5a1.2,1.2,0,0,1-.5-.9V92.4a1.1,1.1,0,0,1,.5-.9l39.2-23h1a1.1,1.1,0,0,1,.5.9l.2,45.5a.9.9,0,0,1-.5.9l-39.5,22.9Zm1.1-45.9v43.2l37.5-21.7-.2-43.3Z"/>
    <path class="cls-1" d="M294.4,115a4.4,4.4,0,0,0,4.4,4.4,4.4,4.4,0,0,0,4.4-4.4,4.3,4.3,0,0,0-4.4-4.4A4.4,4.4,0,0,0,294.4,115Z"/>
    <circle class="cls-1" cx="259.3" cy="213.8" r="4.4"/>
    <path class="cls-1" d="M259.3,214.8h-.5a1.1,1.1,0,0,1-.5-.9V168.4a1.2,1.2,0,0,1,.5-.9l39.2-22.9a.9.9,0,0,1,1,0,1,1,0,0,1,.5.8l.2,45.6a1,1,0,0,1-.5.9l-39.5,22.8Zm1.1-45.8v43.1l37.5-21.7-.2-43.2Z"/>
    <circle class="cls-1" cx="22.3" cy="77.4" r="4.4"/>
    <circle class="cls-1" cx="127.7" cy="46.6" r="5"/>
    <circle class="cls-1" cx="75" cy="259.4" r="4.4"/>
    <path class="cls-1" d="M104.5,121.7a3.2,3.2,0,0,1-6.3,0,3.2,3.2,0,1,1,6.3,0Z"/>
    <path class="cls-1" d="M223.1,191a3.2,3.2,0,1,1-6.3,0,3.2,3.2,0,0,1,6.3,0Z"/>
    <path class="cls-1" d="M233,78a1.1,1.1,0,0,1-.9-.5,1,1,0,0,1,.4-1.4l26.3-15.2a1.1,1.1,0,0,1,1.4.4,1,1,0,0,1-.4,1.4L233.5,77.9Z"/>
    <g>
      <polygon class="cls-1" points="260.2 91.7 298.8 114 298.8 113.2 260.9 91.3 260.2 91.7"/>
      <polygon class="cls-1" points="285.2 77.2 298.7 85 298.7 84.1 285.9 76.8 285.2 77.2"/>
      <polygon class="cls-1" points="259.3 120.1 274.6 129 275.3 128.5 259.3 119.3 259.3 120.1"/>
      <polygon class="cls-1" points="259.3 105.7 287.1 121.7 287.9 121.3 259.3 104.8 259.3 105.7"/>
      <polygon class="cls-1" points="272.7 84.4 298.8 99.5 298.8 98.6 273.4 84 272.7 84.4"/>
      <polygon class="cls-1" points="259.3 134.6 262 136.2 262.8 135.8 259.3 133.7 259.3 134.6"/>
      <polygon class="cls-1" points="259.3 98.4 293.4 118.1 294.1 117.7 259.3 97.6 259.3 98.4"/>
      <polygon class="cls-1" points="278.9 80.8 298.7 92.3 298.7 91.4 279.7 80.4 278.9 80.8"/>
      <polygon class="cls-1" points="259.3 127.4 268.3 132.6 269.1 132.1 259.3 126.5 259.3 127.4"/>
      <polygon class="cls-1" points="259.3 112.9 280.8 125.3 281.6 124.9 259.3 112 259.3 112.9"/>
      <polygon class="cls-1" points="266.4 88.1 298.8 106.8 298.8 105.9 267.2 87.6 266.4 88.1"/>
    </g>
    <g>
      <polygon class="cls-1" points="47 91.3 22.3 105.5 22.3 106.4 47.8 91.7 47 91.3"/>
      <polygon class="cls-1" points="22.3 77 22.3 77.4 22.7 77.2 22.3 77"/>
      <polygon class="cls-1" points="154 304.5 153.5 304.8 154 305.1 154 304.5"/>
      <polygon class="cls-1" points="142.3 267.9 115.9 283.1 116.7 283.5 143.1 268.3 142.3 267.9"/>
      <polygon class="cls-1" points="117.2 253.4 90.9 268.6 91.6 269 118 253.8 117.2 253.4"/>
      <polygon class="cls-1" points="92.2 238.9 65.8 254.1 66.5 254.6 92.9 239.3 92.2 238.9"/>
      <polygon class="cls-1" points="75 219.9 40.7 239.7 41.5 240.1 75 220.7 75 219.9"/>
      <polygon class="cls-1" points="75 190.9 22.3 221.3 22.3 222.2 75 191.8 75 190.9"/>
      <polygon class="cls-1" points="75 162 22.3 192.4 22.3 193.2 75 162.8 75 162"/>
      <polygon class="cls-1" points="75 133 22.3 163.4 22.3 164.3 75 133.9 75 133"/>
      <polygon class="cls-1" points="72.1 105.8 22.3 134.5 22.3 135.3 72.8 106.2 72.1 105.8"/>
      <polygon class="cls-1" points="59.6 98.5 22.3 120 22.3 120.9 60.3 98.9 59.6 98.5"/>
      <polygon class="cls-1" points="34.5 84 22.3 91.1 22.3 91.9 35.2 84.5 34.5 84"/>
      <polygon class="cls-1" points="154 290.1 141 297.6 141.8 298 154 290.9 154 290.1"/>
      <polygon class="cls-1" points="154 275.6 128.5 290.3 129.2 290.8 154 276.5 154 275.6"/>
      <polygon class="cls-1" points="129.8 260.6 103.4 275.8 104.1 276.3 130.5 261.1 129.8 260.6"/>
      <polygon class="cls-1" points="104.7 246.2 78.3 261.4 79.1 261.8 105.4 246.6 104.7 246.2"/>
      <polygon class="cls-1" points="79.6 231.7 53.3 246.9 54 247.3 80.4 232.1 79.6 231.7"/>
      <polygon class="cls-1" points="75 205.4 28.2 232.4 28.9 232.9 75 206.3 75 205.4"/>
      <polygon class="cls-1" points="75 176.4 22.3 206.9 22.3 207.7 75 177.3 75 176.4"/>
      <polygon class="cls-1" points="75 147.5 22.3 177.9 22.3 178.8 75 148.4 75 147.5"/>
      <polygon class="cls-1" points="75 118.6 22.3 149 22.3 149.8 75 119.4 75 118.6"/>
      <polygon class="cls-1" points="53.3 94.9 22.3 112.8 22.3 113.6 54 95.3 53.3 94.9"/>
      <polygon class="cls-1" points="28.2 80.4 22.3 83.8 22.3 84.7 29 80.8 28.2 80.4"/>
      <polygon class="cls-1" points="148.6 271.5 122.2 286.7 123 287.1 149.3 271.9 148.6 271.5"/>
      <polygon class="cls-1" points="123.5 257 97.1 272.2 97.9 272.7 124.2 257.4 123.5 257"/>
      <polygon class="cls-1" points="98.4 242.5 72.1 257.8 72.8 258.2 99.2 243 98.4 242.5"/>
      <polygon class="cls-1" points="75 227.1 47 243.3 47.7 243.7 75 228 75 227.1"/>
      <polygon class="cls-1" points="75 198.2 22.3 228.6 22.3 229 22.7 229.2 75 199 75 198.2"/>
      <polygon class="cls-1" points="75 169.2 22.3 199.6 22.3 200.5 75 170.1 75 169.2"/>
      <polygon class="cls-1" points="75 140.3 22.3 170.7 22.3 171.5 75 141.1 75 140.3"/>
      <polygon class="cls-1" points="75 111.3 22.3 141.7 22.3 142.6 75 112.2 75 111.3"/>
      <polygon class="cls-1" points="65.8 102.1 22.3 127.2 22.3 128.1 66.6 102.6 65.8 102.1"/>
      <polygon class="cls-1" points="40.8 87.7 22.3 98.3 22.3 99.2 41.5 88.1 40.8 87.7"/>
      <polygon class="cls-1" points="154 297.3 147.3 301.2 148 301.6 154 298.2 154 297.3"/>
      <polygon class="cls-1" points="154 282.8 134.7 293.9 135.5 294.4 154 283.7 154 282.8"/>
      <polygon class="cls-1" points="136 264.2 109.7 279.5 110.4 279.9 136.8 264.7 136 264.2"/>
      <polygon class="cls-1" points="111 249.8 84.6 265 85.3 265.4 111.7 250.2 111 249.8"/>
      <polygon class="cls-1" points="85.9 235.3 59.5 250.5 60.3 250.9 86.6 235.7 85.9 235.3"/>
      <polygon class="cls-1" points="75 212.6 34.5 236 35.2 236.5 75 213.5 75 212.6"/>
      <polygon class="cls-1" points="75 183.7 22.3 214.1 22.3 215 75 184.6 75 183.7"/>
      <polygon class="cls-1" points="75 154.7 22.3 185.1 22.3 186 75 155.6 75 154.7"/>
      <polygon class="cls-1" points="75 125.8 22.3 156.2 22.3 157.1 75 126.7 75 125.8"/>
      <polygon class="cls-1" points="50.2 93.1 22.3 109.2 22.3 110 50.9 93.5 50.2 93.1"/>
      <polygon class="cls-1" points="25.1 78.6 22.3 80.2 22.3 81.1 25.8 79 25.1 78.6"/>
      <polygon class="cls-1" points="145.4 269.7 119.1 284.9 119.8 285.3 146.2 270.1 145.4 269.7"/>
      <polygon class="cls-1" points="120.4 255.2 94 270.4 94.8 270.9 121.1 255.6 120.4 255.2"/>
      <polygon class="cls-1" points="95.3 240.7 68.9 255.9 69.7 256.4 96 241.2 95.3 240.7"/>
      <polygon class="cls-1" points="75 223.5 43.9 241.5 44.6 241.9 75 224.4 75 223.5"/>
      <polygon class="cls-1" points="75 194.6 22.3 225 22.3 225.8 75 195.4 75 194.6"/>
      <polygon class="cls-1" points="75 165.6 22.3 196 22.3 196.9 75 166.5 75 165.6"/>
      <polygon class="cls-1" points="75 136.7 22.3 167.1 22.3 167.9 75 137.5 75 136.7"/>
      <polygon class="cls-1" points="75 107.7 22.3 138.1 22.3 139 75 108.6 75 107.7"/>
      <polygon class="cls-1" points="62.7 100.3 22.3 123.6 22.3 124.5 63.5 100.8 62.7 100.3"/>
      <polygon class="cls-1" points="37.6 85.8 22.3 94.7 22.3 95.6 38.4 86.3 37.6 85.8"/>
      <polygon class="cls-1" points="154 293.7 144.1 299.4 144.9 299.8 154 294.6 154 293.7"/>
      <polygon class="cls-1" points="154 279.2 131.6 292.1 132.4 292.6 154 280.1 154 279.2"/>
      <polygon class="cls-1" points="132.9 262.4 106.5 277.7 107.3 278.1 133.7 262.9 132.9 262.4"/>
      <polygon class="cls-1" points="107.8 248 81.5 263.2 82.2 263.6 108.6 248.4 107.8 248"/>
      <polygon class="cls-1" points="82.8 233.5 56.4 248.7 57.1 249.1 83.5 233.9 82.8 233.5"/>
      <polygon class="cls-1" points="75 209 31.3 234.2 32.1 234.7 75 209.9 75 209"/>
      <polygon class="cls-1" points="75 180.1 22.3 210.5 22.3 211.4 75 180.9 75 180.1"/>
      <polygon class="cls-1" points="75 151.1 22.3 181.5 22.3 182.4 75 152 75 151.1"/>
      <polygon class="cls-1" points="75 122.2 22.3 152.6 22.3 153.5 75 123 75 122.2"/>
      <polygon class="cls-1" points="56.4 96.7 22.3 116.4 22.3 117.3 57.2 97.1 56.4 96.7"/>
      <polygon class="cls-1" points="31.4 82.2 22.3 87.4 22.3 88.3 32.1 82.7 31.4 82.2"/>
      <polygon class="cls-1" points="151.7 273.3 125.3 288.5 126.1 288.9 152.5 273.7 151.7 273.3"/>
      <polygon class="cls-1" points="126.6 258.8 100.3 274 101 274.5 127.4 259.3 126.6 258.8"/>
      <polygon class="cls-1" points="101.6 244.3 75.2 259.6 75.9 260 102.3 244.8 101.6 244.3"/>
      <polygon class="cls-1" points="76.5 229.9 50.1 245.1 50.9 245.5 77.2 230.3 76.5 229.9"/>
      <polygon class="cls-1" points="75 201.8 25.1 230.6 25.8 231 75 202.7 75 201.8"/>
      <polygon class="cls-1" points="75 172.8 22.3 203.2 22.3 204.1 75 173.7 75 172.8"/>
      <polygon class="cls-1" points="75 143.9 22.3 174.3 22.3 175.2 75 144.8 75 143.9"/>
      <polygon class="cls-1" points="75 114.9 22.3 145.3 22.3 146.2 75 115.8 75 114.9"/>
      <polygon class="cls-1" points="69 103.9 22.3 130.9 22.3 131.7 69.7 104.4 69 103.9"/>
      <polygon class="cls-1" points="43.9 89.5 22.3 101.9 22.3 102.8 44.6 89.9 43.9 89.5"/>
      <polygon class="cls-1" points="154 300.9 150.4 303 151.2 303.4 154 301.8 154 300.9"/>
      <polygon class="cls-1" points="154 286.5 137.9 295.8 138.6 296.2 154 287.3 154 286.5"/>
      <polygon class="cls-1" points="139.2 266.1 112.8 281.3 113.6 281.7 139.9 266.5 139.2 266.1"/>
      <polygon class="cls-1" points="114.1 251.6 87.7 266.8 88.5 267.2 114.9 252 114.1 251.6"/>
      <polygon class="cls-1" points="89 237.1 62.7 252.3 63.4 252.8 89.8 237.5 89 237.1"/>
      <polygon class="cls-1" points="75 216.3 37.6 237.9 38.3 238.3 75 217.1 75 216.3"/>
      <polygon class="cls-1" points="75 187.3 22.3 217.7 22.3 218.6 75 188.2 75 187.3"/>
      <polygon class="cls-1" points="75 158.4 22.3 188.8 22.3 189.6 75 159.2 75 158.4"/>
      <polygon class="cls-1" points="75 129.4 22.3 159.8 22.3 160.7 75 130.3 75 129.4"/>
    </g>
    <path class="cls-1" d="M78.2,198.8a3.2,3.2,0,0,1-6.3,0,3.2,3.2,0,1,1,6.3,0Z"/>
    <path class="cls-1" d="M180.3,32.4h-.5L153.4,17.1a1,1,0,0,1-.5-.8.9.9,0,0,1,.5-.9L179.8.1h1l26.3,15.2a1.2,1.2,0,0,1,.5.9,1.1,1.1,0,0,1-.5.9L180.8,32.3ZM155.9,16.3l24.4,14,24.3-14.1-24.3-14Z"/>
    <path class="cls-1" d="M154.1,275.6h-.5l-17.1-9.8a1.1,1.1,0,0,1-.5-.9.9.9,0,0,1,.5-.8l17-9.8a.9.9,0,0,1,1,0l17,9.7a1.1,1.1,0,0,1,0,1.8l-16.9,9.8Zm-15-10.8,15,8.6,14.9-8.6-15-8.6Z"/>
    <path class="cls-1" d="M259.3,82.8h-.5l-9.7-5.6a1,1,0,0,1-.5-.8,1.1,1.1,0,0,1,.5-.9l9.7-5.6a.9.9,0,0,1,1,0l9.7,5.6a.9.9,0,0,1,.5.8,1.1,1.1,0,0,1-.5.9l-9.7,5.6Zm-7.7-6.6,7.7,4.5,7.7-4.5-7.7-4.4Z"/>
    <path class="cls-1" d="M75,68.3h-.5l-9.7-5.5a1.2,1.2,0,0,1-.5-.9,1.1,1.1,0,0,1,.5-.9l9.7-5.6h1l9.6,5.6a1.1,1.1,0,0,1,.5.9.9.9,0,0,1-.5.8l-9.6,5.6Zm-7.7-6.5L75,66.2l7.6-4.4L75,57.4Z"/>
  </g>
</svg>
